<?xml version="1.0" encoding="utf-8"?>
<!-- Generator: Adobe Illustrator 26.2.1, SVG Export Plug-In . SVG Version: 6.00 Build 0)  -->
<svg version="1.1" id="Layer_1" xmlns="http://www.w3.org/2000/svg" xmlns:xlink="http://www.w3.org/1999/xlink" x="0px" y="0px"
	 viewBox="0 0 612 792" style="enable-background:new 0 0 612 792;" xml:space="preserve">
<style type="text/css">
	.st0{fill:none;}
	.st1{fill:#127D89;}
	.st2{fill:#8AB1AF;}
	.st3{opacity:0.51;fill:url(#New_Pattern);}
</style>
<pattern  width="144" height="109.1" patternUnits="userSpaceOnUse" id="New_Pattern" viewBox="54 -136.4 144 109.1" style="overflow:visible;">
	<g>
		<rect x="54" y="-136.4" class="st0" width="144" height="109.1"/>
		<path class="st1" d="M252,0c-35.9,0-71.8,0-107.7,0c-0.4-9-0.7-18.1,1-26.9c1.5-7.8,4.8-15.6,10.3-21.4c0.6-0.7,1.3-1.5,2-2
			c0.8-0.5,1.8-0.9,2.6-1.3c1.9-0.9,4-1.5,6-2c4.1-0.9,8.5-1.1,12.7-0.5c3.1,0.5,6.2,1.5,8.6,3.4c2.4,2,4,5.1,3.6,8.2
			c-0.3,2.3-2,4.5-4.3,4.9c-2.3,0.3-4.8-1.9-4.2-4.1c-3.1,1.4-5.2,4.3-6.8,7.3c-2.4,4.6-3.8,9.7-3.9,14.9c-0.1,5,1.6,10.9,6.2,12.7
			c2.3,0.9,4.9,0.6,7.2-0.2c5.2-2,8.8-6.6,12.2-11.1c0.9,3.9,2.6,7.6,5.1,10.8c0.6,0.8,1.4,1.6,2.3,2.1c2.4,1.1,5.2-0.7,7-2.6
			c9-9.1,12-23,21.2-32c2.4-2.4,5.6-4.5,9-4c3.9,0.6,6.5,4.3,7.6,8c0.4,1.2,0.6,2.5,0.3,3.8c-0.3,1.2-1.3,2.4-2.6,2.5
			c-1.4,0.1-2.7-1-4.1-1c-1.3,0-2.5,1-3,2.2c-0.5,1.2-0.6,2.5-0.5,3.8c0.2,6.2,1.8,12.3,4.8,17.7C246.4-3.9,248.7-0.9,252,0z"/>
		<path class="st1" d="M108,0C72.1,0,36.2,0,0.3,0c-0.4-9-0.7-18.1,1-26.9c1.5-7.8,4.8-15.6,10.3-21.4c0.6-0.7,1.3-1.5,2-2
			c0.8-0.5,1.8-0.9,2.6-1.3c1.9-0.9,4-1.5,6-2c4.1-0.9,8.5-1.1,12.7-0.5c3.1,0.5,6.2,1.5,8.6,3.4c2.4,2,4,5.1,3.6,8.2
			c-0.3,2.3-2,4.5-4.3,4.9c-2.3,0.3-4.8-1.9-4.2-4.1c-3.1,1.4-5.2,4.3-6.8,7.3c-2.4,4.6-3.8,9.7-3.9,14.9c-0.1,5,1.6,10.9,6.2,12.7
			c2.3,0.9,4.9,0.6,7.2-0.2c5.2-2,8.8-6.6,12.2-11.1c0.9,3.9,2.6,7.6,5.1,10.8c0.6,0.8,1.4,1.6,2.3,2.1c2.4,1.1,5.2-0.7,7-2.6
			c9-9.1,12-23,21.2-32c2.4-2.4,5.6-4.5,9-4c3.9,0.6,6.5,4.3,7.6,8c0.4,1.2,0.6,2.5,0.3,3.8c-0.3,1.2-1.3,2.4-2.6,2.5
			c-1.4,0.1-2.7-1-4.1-1c-1.3,0-2.5,1-3,2.2c-0.5,1.2-0.6,2.5-0.5,3.8c0.2,6.2,1.8,12.3,4.8,17.7C102.4-3.9,104.7-0.9,108,0z"/>
		<path class="st1" d="M180-54.6c-35.9,0-71.8,0-107.7,0c-0.4-9-0.7-18.1,1-26.9c1.5-7.8,4.8-15.6,10.3-21.4c0.6-0.7,1.3-1.5,2-2
			c0.8-0.5,1.8-0.9,2.6-1.3c1.9-0.9,4-1.5,6-2c4.1-0.9,8.5-1.1,12.7-0.5c3.1,0.5,6.2,1.5,8.6,3.4c2.4,2,4,5.1,3.6,8.2
			c-0.3,2.3-2,4.5-4.3,4.9s-4.8-1.9-4.2-4.1c-3.1,1.4-5.2,4.3-6.8,7.3c-2.4,4.6-3.8,9.7-3.9,14.9c-0.1,5,1.6,10.9,6.2,12.7
			c2.3,0.9,4.9,0.6,7.2-0.2c5.2-2,8.8-6.6,12.2-11.1c0.9,3.9,2.6,7.6,5.1,10.8c0.6,0.8,1.4,1.6,2.3,2.1c2.4,1.1,5.2-0.7,7-2.6
			c9-9.1,12-23,21.2-32c2.4-2.4,5.6-4.5,9-4c3.9,0.6,6.5,4.3,7.6,8c0.4,1.2,0.6,2.5,0.3,3.8s-1.3,2.4-2.6,2.5c-1.4,0.1-2.7-1-4.1-1
			c-1.3,0-2.5,1-3,2.2c-0.5,1.2-0.6,2.5-0.5,3.8c0.2,6.2,1.8,12.3,4.8,17.7C174.4-58.5,176.7-55.5,180-54.6z"/>
		<path class="st1" d="M252-109.1c-35.9,0-71.8,0-107.7,0c-0.4-9-0.7-18.1,1-26.9c1.5-7.8,4.8-15.6,10.3-21.4c0.6-0.7,1.3-1.5,2-2
			c0.8-0.5,1.8-0.9,2.6-1.3c1.9-0.9,4-1.5,6-2c4.1-0.9,8.5-1.1,12.7-0.5c3.1,0.5,6.2,1.5,8.6,3.4c2.4,2,4,5.1,3.6,8.2
			c-0.3,2.3-2,4.5-4.3,4.9s-4.8-1.9-4.2-4.1c-3.1,1.4-5.2,4.3-6.8,7.3c-2.4,4.6-3.8,9.7-3.9,14.9c-0.1,5,1.6,10.9,6.2,12.7
			c2.3,0.9,4.9,0.6,7.2-0.2c5.2-2,8.8-6.6,12.2-11.1c0.9,3.9,2.6,7.6,5.1,10.8c0.6,0.8,1.4,1.6,2.3,2.1c2.4,1.1,5.2-0.7,7-2.6
			c9-9.1,12-23,21.2-32c2.4-2.4,5.6-4.5,9-4c3.9,0.6,6.5,4.3,7.6,8c0.4,1.2,0.6,2.5,0.3,3.8s-1.3,2.4-2.6,2.5c-1.4,0.1-2.7-1-4.1-1
			c-1.3,0-2.5,1-3,2.2c-0.5,1.2-0.6,2.5-0.5,3.8c0.2,6.2,1.8,12.3,4.8,17.7C246.4-113.1,248.7-110.1,252-109.1z"/>
		<path class="st1" d="M108-109.1c-35.9,0-71.8,0-107.7,0c-0.4-9-0.7-18.1,1-26.9c1.5-7.8,4.8-15.6,10.3-21.4c0.6-0.7,1.3-1.5,2-2
			c0.8-0.5,1.8-0.9,2.6-1.3c1.9-0.9,4-1.5,6-2c4.1-0.9,8.5-1.1,12.7-0.5c3.1,0.5,6.2,1.5,8.6,3.4c2.4,2,4,5.1,3.6,8.2
			c-0.3,2.3-2,4.5-4.3,4.9s-4.8-1.9-4.2-4.1c-3.1,1.4-5.2,4.3-6.8,7.3c-2.4,4.6-3.8,9.7-3.9,14.9c-0.1,5,1.6,10.9,6.2,12.7
			c2.3,0.9,4.9,0.6,7.2-0.2c5.2-2,8.8-6.6,12.2-11.1c0.9,3.9,2.6,7.6,5.1,10.8c0.6,0.8,1.4,1.6,2.3,2.1c2.4,1.1,5.2-0.7,7-2.6
			c9-9.1,12-23,21.2-32c2.4-2.4,5.6-4.5,9-4c3.9,0.6,6.5,4.3,7.6,8c0.4,1.2,0.6,2.5,0.3,3.8c-0.3,1.2-1.3,2.4-2.6,2.5
			c-1.4,0.1-2.7-1-4.1-1c-1.3,0-2.5,1-3,2.2c-0.5,1.2-0.6,2.5-0.5,3.8c0.2,6.2,1.8,12.3,4.8,17.7C102.4-113.1,104.7-110.1,108-109.1
			z"/>
	</g>
</pattern>
<rect class="st2" width="612" height="792"/>
<rect class="st3" width="612" height="792"/>
</svg>
