<?xml version="1.0" encoding="utf-8"?>
<!-- Generator: Adobe Illustrator 26.0.3, SVG Export Plug-In . SVG Version: 6.00 Build 0)  -->
<svg version="1.1" id="Layer_1" xmlns="http://www.w3.org/2000/svg" xmlns:xlink="http://www.w3.org/1999/xlink" x="0px" y="0px"
	 viewBox="0 0 237.37 136.9" style="enable-background:new 0 0 237.37 136.9;" xml:space="preserve">
<style type="text/css">
	.st0{fill:#127D89;}
	.st1{font-family:'Alana';}
	.st2{font-size:25.0382px;}
</style>
<path class="st0" d="M237.37,136.9c-78.89-0.03-157.77-0.06-236.66-0.09c-0.98-19.77-1.53-39.76,2.3-59.18
	c3.39-17.22,10.5-34.19,22.62-47.11c1.38-1.47,2.84-3.22,4.5-4.38c1.71-1.2,3.88-2.03,5.79-2.88c4.27-1.88,8.73-3.35,13.28-4.4
	c9.1-2.08,18.6-2.45,27.83-0.99c6.77,1.07,13.57,3.2,18.87,7.54s8.89,11.21,7.94,18c-0.7,5.06-4.4,9.97-9.45,10.71
	c-5.05,0.74-10.51-4.16-9.22-9.1c-6.76,3.1-11.53,9.38-15.01,15.95c-5.34,10.08-8.29,21.42-8.54,32.82
	c-0.24,11.07,3.42,23.92,13.73,27.95c5.01,1.96,10.73,1.37,15.76-0.52c11.45-4.31,19.43-14.56,26.78-24.34
	c1.92,8.61,5.77,16.78,11.19,23.75c1.41,1.81,2.99,3.59,5.07,4.54c5.34,2.42,11.36-1.45,15.48-5.62
	c19.86-20.09,26.36-50.63,46.51-70.43c5.32-5.23,12.33-9.8,19.71-8.74c8.48,1.22,14.24,9.47,16.65,17.68
	c0.79,2.68,1.33,5.54,0.65,8.24c-0.69,2.7-2.9,5.19-5.69,5.39c-3.09,0.23-5.84-2.27-8.94-2.29c-2.87-0.02-5.39,2.17-6.58,4.79
	c-1.19,2.61-1.28,5.58-1.2,8.45c0.34,13.58,3.99,27.07,10.55,38.97C224.96,128.25,230.06,134.81,237.37,136.9z"/>
<text transform="matrix(1 0 0 1 96.5773 34.3237)" class="st1 st2">Wave Jewelry</text>
</svg>
