<?xml version="1.0" encoding="utf-8"?>
<!-- Generator: Adobe Illustrator 26.2.1, SVG Export Plug-In . SVG Version: 6.00 Build 0)  -->
<svg version="1.1" id="Layer_1" xmlns="http://www.w3.org/2000/svg" xmlns:xlink="http://www.w3.org/1999/xlink" x="0px" y="0px"
	 viewBox="0 0 237.4 136.9" style="enable-background:new 0 0 237.4 136.9;" xml:space="preserve">
<style type="text/css">
	.st0{fill:#127D89;}
</style>
<path class="st0" d="M237.4,136.9c-78.9,0-157.8-0.1-236.7-0.1C-0.3,117-0.8,97,3,77.6c3.4-17.4,11.4-33.7,23.1-47.2
	c2.7-3.1,6-5.5,9.7-7.1c0,0,0,0,0.1,0c4.3-1.9,8.7-3.4,13.3-4.4c9.1-2.1,18.6-2.5,27.8-1c6.8,1.1,13.6,3.2,18.9,7.5s8.9,11.2,7.9,18
	c-0.7,5.1-4.4,10-9.5,10.7c-5.1,0.7-10.5-4.2-9.2-9.1c-6.8,3.1-11.5,9.4-15,15.9c-5.3,10.1-8.3,21.4-8.5,32.8
	c-0.3,12.7,4.6,27.9,18.9,29.1c2.9,0.3,5.8-0.2,8.6-1c12.6-3.8,21-14.7,28.8-25c1.9,8.6,5.8,16.8,11.2,23.7c1.4,1.8,3,3.6,5.1,4.5
	c5.3,2.4,11.4-1.5,15.5-5.6c19.9-20.1,26.4-50.6,46.5-70.4c5.3-5.2,12.3-9.8,19.7-8.7c8.5,1.2,14.2,9.5,16.7,17.7
	c0.9,3.2,1.5,6.7,0.1,9.9c-0.6,1.2-1.5,2.2-2.6,2.9c-4.2,2.5-7.5-1.4-11.4-1.5c-2.9,0-5.4,2.2-6.6,4.8c-1.2,2.6-1.3,5.6-1.2,8.4
	c0.3,13.6,4,27.1,10.5,39C225,128.3,230.1,134.8,237.4,136.9z"/>
<g>
	<path d="M122.2,28c0.2-0.2,0.6-0.9,0.8-1.1c0.1-0.1,0.3-0.1,0.4-0.3c0.3-0.4,0.5-0.8,0.7-1.2c0.4-0.5,1-1.4,1.4-1.9
		c0.2-0.3,0.5-0.9,0.7-1.1c0.1-0.1,0.3-0.4,0.3-0.6c0-0.3,1.4-2.3,1.5-2.6c0.3-0.5,0.3-1.1,0.6-1.6c0.6-1.2,1.1-2.7,1.4-4.1
		c0.1-0.5,0.3-0.5,0.3-1c0-0.5,0.2-1,0.2-1.6c0-0.2-0.1-0.8-0.1-1.3c0-0.3-0.3-1-0.3-1.2c0-0.3-0.3-0.1-0.4-0.5
		c-0.1-0.6-1-0.2-1.2-1.3c0-0.3,0.3-0.6,0.5-0.7c0.1,0,0.2,0,0.3,0c0.2,0,0.4,0.1,0.5,0.1c0.2,0.1,0.6,0.5,0.9,0.9
		c0.1,0.2,0.3,0.5,0.3,0.7c0,0,0,0.2,0,0.3c0,0.1,0.1-0.1,0.2,0.4l0.2,0.9c0.1,0.5,0.1,1.1,0.1,1.6c0,0.7-0.1,1.3-0.1,1.7
		c-0.2,0.6-0.2,0.8-0.3,1.4l-0.3,0.5c-0.1,0.3-0.1,0.7-0.3,1.1c-0.1,0.3-0.5,0.5-0.6,0.8c-0.1,0.3-0.1,0.5-0.2,0.8
		c-0.1,0.2-0.4,0.3-0.5,0.5c0,0.1,0,0.1,0,0.2c0,0.1,0,0.1,0,0.2c0,0.4-0.3,0.9-0.5,1.2c-0.2,0.4-0.3,0.7-0.5,1.2
		c-0.1,0.2-0.5,0.3-0.5,0.4c-0.1,0.3-0.4,0.5-0.4,0.7c0,0.1-0.2,0.4-0.3,0.5c0,0.1,0,0.2,0,0.2l-0.5,0.8c-0.3,0.4-0.2,0.2-0.5,0.7
		l-0.4,0.6c-0.3,0.4-0.5,0.6-0.7,1.1c0,0.1-0.5,0.3-0.5,0.3c-0.1,0.5-0.4,0.6-0.5,0.7c-0.1,0.2-0.1,0.3-0.3,0.5
		c-0.1,0,0,0.2-0.1,0.3c-0.1,0.1-0.4,0.3-0.4,0.5c0,0.2-0.1,0.2-0.3,0.4c-0.2,0.2-0.1,0.4-0.4,0.5c-0.3,0.2-0.2,0.6-0.5,0.9
		c0,0.1-0.3,0.1-0.3,0.2c-0.1,0.3-0.3,0.4-0.4,0.7c-0.1,0.2-0.5,0.7-0.5,0.8c-0.1,0.2-0.5,0.7-0.6,0.9c-0.1,0.2,0,0.4-0.1,0.6
		c-0.1,0.2-0.3,0.7-0.5,0.8c-0.1,0.1-0.2,0.1-0.3,0.1c-0.1,0-0.2-0.1-0.3-0.1c-0.4-0.1-0.7-0.4-0.9-0.8c-0.1-0.2-0.1-0.4-0.1-0.6
		c0-0.5,0.1-1,0.2-1.3c0.2-0.6,0.3-1.5,0.4-2c0.1-0.3,0.1-0.6,0.1-0.9v-0.5c0-0.4,0-0.8,0.1-1.2c0.2-0.7,0.2-2.1,0.3-3.4
		c0-0.6,0.1-1.3,0.1-1.8c0-0.3,0-0.5-0.1-0.7c0-0.1,0-0.2,0-0.4c0-0.5,0.1-1.1,0.1-1.6c0-0.4,0-0.7-0.2-0.8c-0.4,0.5-0.7,0.9-1,1.3
		c-0.1,0.2-0.3,0.6-0.4,0.7c-0.1,0.1-0.1,0.3-0.2,0.4c-0.1,0.1-0.3,0.2-0.5,0.3c0,0.1,0,0.1,0,0.3c0,0.1-0.2,0.2-0.2,0.3
		c0,0.1-0.2,0.3-0.3,0.4c-0.3,0.4-0.5,0.6-0.7,0.7c-0.1,0.1-0.1,0.3-0.2,0.4c-0.1,0.1-0.3,0.1-0.3,0.3c-0.2,0.3-0.1,0.5-0.4,0.7
		c-0.1,0.1-0.3,0.4-0.4,0.5c-0.1,0.1-0.3,0.3-0.5,0.4c-0.3,0.3-0.2,0.5-0.5,0.8l-1,1.3c-0.3,0.3-0.3,0.5-0.6,0.8
		c-0.2,0.2-0.5,0.4-0.6,0.6c-0.1,0.1-0.1,0.1-0.2,0.3c-0.1,0.2-0.4,0.4-0.5,0.5c-0.1,0.2-0.5,0.4-0.6,0.5l-0.3,0.3
		c-0.1,0.1-0.1,0.2-0.2,0.4c-0.1,0.2-0.5,0.4-0.6,0.6c-0.1,0.1,0,0.3-0.1,0.4c-0.2,0.4-0.7,0.8-0.9,1.3c-0.1,0.2-0.1,0.3-0.2,0.5
		c-0.3,0.4-0.5,0.9-0.9,0.9c-0.1,0-0.1,0-0.1,0c-0.5-0.2-0.7-0.6-0.9-1c-0.1-0.1-0.1-0.3-0.1-0.4c0-0.2,0-0.5,0.1-0.7
		c0.3-1,1-2,1.1-2.5c0-0.1,0.2-0.5,0.2-0.6c0.2-1,0.7-1.7,0.9-2.6c0.1-0.4,0-0.7,0.1-1.1c0.3-1,0.7-2.1,1-3.2
		c0.1-0.5,0.2-1.1,0.3-1.6c0.1-0.5,0.4-1.4,0.4-2.2c0-0.2,0-0.4-0.1-0.6c0-0.1-0.1-0.3-0.1-0.5c0-0.4,0.1-0.8,0.1-1.1
		c0,0,0-0.1,0-0.1c0-0.2-0.2-0.3-0.2-0.5v-0.7c0-0.6-0.3-1.4-0.5-1.7l-0.7-0.9c-0.2-0.2-0.2-0.4-0.4-0.6c-0.6-0.5-1.2-0.8-1.8-0.8
		c-0.4,0-0.8-0.2-1.4-0.2c-0.2,0-0.9,0.2-1.2,0.2c-1.1,0.1-1.8,0.3-2.6,0.8c-0.1,0.1-0.5,0.3-0.6,0.3c-0.3,0.2-0.5,0.5-0.8,0.7
		l-0.3,0.1c-0.1,0.1-0.1,0.3-0.1,0.4c-0.1,0.1-0.4,0.2-0.5,0.4c-0.2,0.3-0.3,0.5-0.4,0.7c-0.1,0.2-0.1,0.5-0.3,0.7
		c-0.1,0.1-0.2,0.2-0.3,0.3c0,0.1,0,0.1,0,0.2c0,0.5-0.2,0.5-0.2,0.7c0,0.2-0.3,0.7-0.3,0.9c0,0.6,0.1,0.8,0.1,1.6v0.7
		c0,0.4,0.3,0.8,0.5,1.2c0,0.1,0,0.1,0,0.2c0,0.3,0,0.3,0,0.4c0.2,0.3,0.7,0.4,1,0.7c0.1,0.1,0.2,0.4,0.4,0.5c0,0,0.1,0,0.1,0
		c0.1,0,0.1,0,0.2,0c0.2,0.1,0.5,0.3,0.8,0.4c0.3,0.1,0.6,0.1,1,0.1c0.4,0,0.8,0,1.1-0.1c1.1-0.3,2-1,2.2-1.5
		c0.1-0.2,0.1-0.3,0.1-0.5c0.1-0.2,0.3-0.4,0.4-0.6c0.1-0.3,0.2-0.7,0.2-1.1c0-0.8-0.3-1.6-0.9-1.8c0,0-0.1,0-0.1,0
		c-0.2,0-0.5,0.1-0.8,0.1h-0.1c-0.2,0-0.4-0.3-0.4-0.5c0-0.1,0-0.2,0.1-0.2c0.1-0.4,0.4-0.5,0.9-0.5c0.3,0,0.7,0.2,0.9,0.3
		c0.4,0.3,0.8,0.8,0.9,1.3c0.1,0.3,0.2,0.6,0.2,0.9c0,1.2-0.2,2.2-0.8,3c-0.7,0.9-1.7,1.5-2.7,1.8c-0.3,0.1-0.9,0.2-1.6,0.2
		c-0.4,0-0.7,0-1.1-0.1c-1.4-0.3-2.5-1.2-3.2-2.2c-0.5-0.7-1-2-1-3.3c0-0.3,0-0.6,0.1-0.9c0-0.1,0-0.3,0-0.4v-0.4
		c0-0.2,0-0.3,0.1-0.6c0.1-0.3,0.1-0.6,0.4-1.1c0.1-0.2,0.3-0.3,0.4-0.4c0.2-0.2,0.2-0.5,0.3-0.7c0.6-0.9,2-1.8,2.8-2.3
		c0.5-0.3,1.4-0.7,1.9-0.7c0.5,0,1.6-0.4,2.3-0.4c0.2,0,0.5,0,0.7,0c1.1,0,2.1,0.2,3,0.5c1.4,0.4,2.2,1,2.9,2
		c0.8,1.1,0.9,2.1,1.1,2.8c0.2,0.5,0.2,1.1,0.2,1.7c0,0.5,0,0.9,0,1.3c0,0.2-0.2,0.5-0.2,0.7c0,0.7-0.1,1.3-0.1,1.7
		c0,0.2-0.1,0.5-0.1,0.7c0,0.1-0.2,0.3-0.2,0.5c0,0.4-0.2,0.8-0.2,1.2c0,0.3-0.1,0.4-0.3,0.9l-0.3,1.3c-0.1,0.4-0.3,0.8-0.5,1.2
		c-0.1,0.4-0.1,1.1-0.3,1.4c-0.1,0.1-0.2,0.1-0.2,0.2c-0.1,0.4-0.3,0.9-0.3,1.3c0,0.1,0.3,0.1,0.3,0.1c0.4-0.6,1.2-1.1,1.6-1.7
		c0.2-0.3,0.4-0.4,0.6-0.6c0.2-0.2,0.3-0.4,0.4-0.6c0.2-0.2,0.5-0.4,0.7-0.6c0-0.1,0.2-0.3,0.3-0.4c0.3-0.3,1.8-2.4,2.2-2.9
		c0.4-0.5,0.7-1.1,1.2-1.6c0.2-0.2,0.6-0.9,0.7-0.9c0.3-0.6,1.2-2,1.3-2.1c0.2-0.3,0.4-0.7,0.6-1c0.1-0.1,0.2-0.5,0.2-0.7
		c0.1-0.3,0.1-0.5,0.2-0.8s0.6-1,1.1-1.2c0.2-0.1,0.3-0.1,0.5-0.1c0.1,0,0.1,0,0.2,0.1c0.1,0.1,0.3,0.3,0.3,0.5
		c0,0.1,0.1,0.2,0.1,0.3c0,0.3-0.1,0.7-0.1,0.9c0,0.3,0.1,0.7,0.1,1c0,0.1,0,0.2-0.1,0.3c-0.1,0.1-0.1,0.3-0.1,0.4
		c0,0.1,0,0.2,0.1,0.5c0,0.1,0.1,1,0.1,1.1c-0.1,0.8,0,1.8-0.1,2.2v0.1c0,0.3,0.1,0.7,0.1,1.1c0,0.1,0,0.2,0,0.3
		c-0.1,0.3-0.1,1.1-0.1,1.7c0,0.8-0.1,1.3-0.2,2.3c0,0-0.1,0.1-0.1,0.2c0,0,0,0.1,0,0.1l0.1,0.1c0.1,0.1,0.1,0.1,0.1,0.2
		c0,0.2-0.1,0.4-0.1,0.5c0,0.4-0.2,0.5-0.2,0.9c0,0.5-0.3,1.3-0.3,1.6c0,0.1,0,0.1,0,0.1C121.1,29.5,121.9,28.4,122.2,28z"/>
	<path d="M132.8,28.9l-0.1-0.1c-0.2,0.3-0.5,0.5-0.8,0.7c-0.1,0.1-0.1,0.2-0.2,0.3c-0.1,0.1-0.3,0.2-0.5,0.3
		c-0.1,0.1-0.2,0.3-0.3,0.4c-0.3,0.2-0.5,0.5-0.7,0.7c-0.7,0.4-1.2,0.9-1.8,1.3c-0.2,0.1-0.5,0.3-0.7,0.4c-0.1,0.1-0.3,0.1-0.5,0.1
		c-0.1,0-0.2,0-0.2,0c-0.3-0.1-0.7-0.3-0.8-0.6c-0.1-0.3-0.2-0.7-0.2-1.1c0-0.7,0.2-1.5,0.4-1.9v-0.3c0.1-0.1,0.1-0.1,0.2-0.2
		c0.1-0.2,0.2-0.5,0.3-0.7c0.1,0,0.1,0,0.2-0.1V28c0-0.1,0.1-0.3,0.2-0.5c0.1-0.1,0.5-0.5,0.6-0.6c0.1-0.1,0.1,0,0.2-0.1
		c0.1-0.1,0.1-0.3,0.1-0.4c0-0.3,0.6-0.4,0.8-0.6c0.1-0.1,0-0.2,0.1-0.3c0.2-0.2,0.6-0.4,0.8-0.6c0.3-0.3,0.7-0.4,1.1-0.7
		c0.3-0.2,0.6-0.1,0.9-0.2c0.1-0.1,0.3-0.1,0.5-0.1c0.2-0.1,0.4-0.2,0.7-0.2c0.1,0,0.3,0,0.4,0c0.4,0,0.9,0.1,1.3,0.1
		c1.2,0.2,2.1,1.1,2.1,2.1c0,0.1,0,0.2,0,0.3c0,0.1-0.1,0.3-0.5,0.3c-0.2,0-0.4-0.2-0.4-0.3c0-0.5,0.3-0.6,0.3-0.8
		c0-0.2-0.2-0.5-0.4-0.6c-0.3-0.2-0.8-0.3-1.3-0.3c-0.6,0-1.3,0.2-1.7,0.4c-0.1,0.1-0.2,0-0.4,0.1c-0.2,0.1-0.4,0.3-0.6,0.4
		l-0.2,0.2c-0.1,0.1-0.3,0.1-0.5,0.2c-0.1,0.1-0.1,0.3-0.3,0.3c-0.2,0-0.3,0.3-0.4,0.5c-0.1,0.1-0.3,0.3-0.4,0.3
		c-0.1,0.1-0.2,0.4-0.3,0.5c-0.1,0.2-0.3,0.3-0.4,0.5c-0.3,0.4-0.5,0.8-0.7,1.1c-0.3,0.5-0.5,1.1-0.6,1.7c0,0.1,0,0.2,0,0.3
		c0,0.3,0.1,0.5,0.4,0.5c0.2,0,0.5-0.1,0.6-0.1c0.3-0.2,0.5-0.3,0.8-0.5c0.2-0.1,0.3-0.3,0.4-0.4c0.3-0.3,0.5-0.3,0.7-0.6
		c0.5-0.4,0.9-0.9,1.4-1.2l0.7-0.8l0.2-0.5c0.2-0.3,0.4-0.6,0.7-0.7c0.2-0.1,0.6-0.3,0.8-0.4c0.1,0,0.1,0,0.1,0
		c0.4,0,0.7,0.5,0.8,0.8c0,0.1,0.1,0.2,0.1,0.3c0,0.2-0.1,0.5-0.1,0.7c0,0.3-0.3,0.8-0.4,1c-0.1,0.3-0.2,0.8-0.4,1.2
		c0,0.1-0.1,0.1-0.2,0.3c0,0.1,0,0.1,0,0.2v0.2c-0.1,0.2-0.1,0.5-0.1,0.6c0,0.1,0,0.1,0,0.2c0,0.2,0.2,0.3,0.4,0.3
		c0.1,0,0.2,0,0.3-0.1c0.2-0.1,0.5-0.4,1.4-1c0.3-0.2,0.5-0.4,0.7-0.6c0.1-0.1,0.3-0.1,0.3-0.2c0.2-0.2,0.4-0.3,0.5-0.6
		c0.1-0.1,0.4-0.3,0.5-0.4c0.3-0.2,0.9-1.2,1.2-1.2c0.2,0,0.3,0.1,0.3,0.3c0,0,0,0.1,0,0.1c-0.1,0.2-0.5,0.7-0.7,0.8l-0.2,0.1
		l-0.5,0.6c-0.5,0.7-1.1,1.1-1.5,1.4c-0.1,0.1-0.3,0.1-0.3,0.1c-0.1,0.1,0,0.2-0.1,0.3l-0.5,0.4c-0.2,0.2-0.7,0.3-1,0.5
		c-0.4,0.2-0.8,0.3-1.2,0.3c-0.1,0-0.1,0-0.1,0c-0.5-0.1-0.9-0.3-1.1-0.7c-0.1-0.1-0.1-0.4-0.1-0.7c0-0.2,0-0.5,0.1-0.8
		C132.4,30.2,132.5,29.6,132.8,28.9z"/>
	<path d="M139.9,27.4c0.1-0.1,0.2-0.2,0.3-0.3c0.7-1,0.4-0.3,1.7-2.1c0.1-0.2,0.2,0,0.3-0.2l0.1-0.2c0.4-0.6,0.9-1.2,1.6-1.2
		c0.1,0,0.3,0,0.4,0.1c0.3,0.1,0.4,0.1,0.5,0.5c0,0.1,0.1,0.3,0.1,0.4c0,0.2-0.1,0.4-0.1,0.6c-0.1,0.2-0.1,0.4-0.1,0.6
		c-0.1,0.5-0.3,1.1-0.5,1.5c-0.1,0.3-0.1,0.7-0.1,1.1c-0.1,0.6-0.3,1.3-0.4,1.8c0,0.1,0,0.2,0,0.3c-0.1,0.5-0.1,0.9-0.1,1.1
		c0,0.2,0,0.4,0.1,0.5c0.1,0.1,0.2,0.1,0.3,0.1c0.2,0,0.5-0.1,0.6-0.1c0.2-0.1,0.3-0.1,0.5-0.3c0.1,0,0.1-0.1,0.1-0.2
		c0.3-0.3,0.6-0.4,0.8-0.7c0.1,0,0.2-0.1,0.2-0.1c0.4-0.5,0.6-1,1-1.5c0.1-0.1,0.2,0,0.2-0.1c0.2-0.2,0.3-0.6,0.5-0.9
		c0.1-0.2,0.1-0.2,0.1-0.4c0.1-0.4,0.1-0.5,0.1-0.7c0-0.1,0-0.3-0.1-0.8c-0.1-0.3-0.3-0.9-0.4-1.1v-0.3c0-0.3,0-0.6,0.1-0.9
		c0.1-0.3,0.5-0.7,1.2-0.7c0.7,0,0.8,0.5,0.8,0.8v0.4c0,0.4,0,1-0.1,1.2c-0.2,0.4-0.2,0.7-0.4,1.2c0,0.2,0,0.3,0,0.5s0,0.3,0,0.3
		c0.1,0.2,0.1,0.5,0.2,0.7c0.3,0.4,0.1,0.3,0.6,0.7c0.1,0.1,0.4,0.2,0.7,0.2c0.1,0,0.2,0,0.3,0c0.3,0,0.6-0.1,0.9-0.3
		c0.1-0.1,0.2-0.1,0.3-0.3c0.1-0.1,0.2-0.3,0.3-0.3c0,0,0.1,0,0.1,0c0.1,0.1,0.1,0.1,0.1,0.2c0,0.1-0.1,0.3-0.1,0.3
		s-0.2,0.3-0.5,0.5c-0.1,0.1-0.2,0.1-0.4,0.2c-0.3,0.1-0.6,0.2-0.9,0.2h-0.3c-0.3,0-0.9-0.2-1.2-0.4c-0.1-0.1-0.1-0.2-0.1-0.3
		c-0.1-0.1-0.2-0.1-0.3-0.2c-0.1-0.3-0.3-0.4-0.4-0.8c-0.3,0.6-0.5,0.9-0.9,1.4c-0.1,0.2-0.4,0.4-0.5,0.6l-0.1,0.3
		c-0.1,0.1-0.2,0.1-0.3,0.1l-0.6,0.9c-0.1,0.1-0.3,0.2-0.4,0.3c-0.3,0.4-0.7,0.6-1.1,0.9c-0.1,0.1-0.3,0.3-0.4,0.3
		c-0.1,0-0.2,0.2-0.3,0.2c-0.3,0.1-0.9,0.4-1.3,0.4c-0.1,0-0.2,0-0.3,0c-0.5-0.1-0.5-0.5-0.8-0.6c-0.1-0.1-0.1-0.5-0.2-0.6
		c-0.1-0.1-0.1-0.3-0.1-0.4v-0.3c0-0.2,0.1-0.4,0.1-0.7v-0.2c0-0.1,0-0.2,0-0.3s0-0.1,0-0.1c0.1-0.4,0.3-0.9,0.3-1.3l0-0.3
		c0-0.2,0.2-0.3,0.2-0.6c0.2-0.4,0.3-1.1,0.5-1.7c0.1-0.3,0.1-0.5,0.2-0.9c0,0-0.1-0.1-0.1-0.1s-0.1,0-0.1,0
		c-0.3,0.2-0.2,0.2-0.5,0.6c-0.5,0.3-0.6,0.9-1,1.2c-0.5,0.3-0.5,0.5-0.9,0.9c-0.3,0.3-0.7,1.1-1.3,1.1c-0.1,0-0.1-0.1-0.1-0.1
		c0-0.1,0-0.1,0.1-0.2C139.1,28.2,139.6,27.8,139.9,27.4z"/>
	<path d="M152.4,31.4c-0.1-0.4-0.1-0.6-0.1-0.9c0-0.3,0-0.5,0.1-0.9c0.1-0.4,0.1-0.7,0.2-1c0.2-0.5,0.4-1,0.8-1.5
		c0-0.1,0.2-0.2,0.3-0.2c0.1-0.2,0.1-0.3,0.3-0.5c0.1-0.2,0.3-0.3,0.4-0.5c0.4-0.5,0.9-0.9,1.3-1.3c0.3-0.2,1.2-0.7,2.1-0.7
		c0.4,0,0.8,0.2,1.1,0.5c0.3,0.3,0.4,0.6,0.4,1c0,0.5-0.2,0.9-0.3,1.1c-0.1,0.1-0.2,0.1-0.3,0.2c-0.2,0.2-0.1,0.5-0.3,0.7
		c-0.1,0.2-0.4,0.3-0.5,0.5c-0.1,0.1-0.2,0.2-0.3,0.3c-0.4,0.4-0.7,0.6-1.1,0.7c0,0-0.3,0-0.4,0.1c-0.2,0.1-0.4,0.3-0.5,0.3
		c-0.3,0.2-0.9,0.1-1.2,0.4c-0.1,0.1-0.2,0.7-0.2,0.8c0,0.1,0,0.2,0,0.4c0,0.2,0,0.4,0,0.5c0.1,0.4,0.5,0.9,1,1c0.1,0,0.2,0,0.3,0
		c0.6,0,1.3-0.2,1.8-0.5c0.2-0.1,0.8-0.5,1-0.8c0.1-0.2,0.3-0.3,0.4-0.3c0.1,0,0.2,0,0.3,0.1c0.1,0.1,0.1,0.2,0.1,0.3
		c0,0.1-0.1,0.3-0.2,0.4c-0.4,0.4-0.7,0.6-1.1,0.8c-0.3,0.2-0.7,0.5-1.1,0.5c-0.2,0-0.4,0.2-0.5,0.2c-0.3,0-0.3,0.1-0.6,0.2
		c-0.2,0-0.4,0.1-0.6,0.1c-1.1,0-2.1-0.5-2.3-1.3C152.6,31.7,152.5,31.6,152.4,31.4z M158,24.7c-0.1,0-0.4,0.1-0.5,0.2
		c-0.2,0.2-0.3,0.4-0.6,0.6c-0.2,0.2-0.4,0.3-0.7,0.4c-0.1,0.1-0.1,0.2-0.1,0.3c-0.1,0.1-0.3,0.2-0.4,0.3c-0.3,0.2-0.3,0.6-0.4,0.9
		c-0.2,0.4-0.4,0.5-0.4,1.1c0.1,0.1,0.3,0.1,0.4,0.1c0.4,0,0.8-0.2,1.1-0.3c0.2-0.1,0.5-0.2,0.8-0.4c0.1-0.1,0.1-0.2,0.2-0.3
		c0.7-0.7,1.1-1.4,1.1-2.3c0-0.1,0-0.3-0.3-0.4C158.1,24.7,158,24.7,158,24.7z"/>
	<path d="M124,43.2c0.3,0,0.5,0.4,0.5,0.5c0.1,0.1,0.1,0.2,0.1,0.3c0,0.3-0.2,0.6-0.3,0.8c-0.2,0.4-0.3,0.9-0.6,1.3
		c-0.1,0.2-0.5,0.7-0.5,1.1c0,0-0.1,0.4-0.1,0.5c-0.1,0.2-0.3,0.4-0.3,0.6v0.3c0,0.1,0,0.3,0,0.4c-0.1,0.6-0.6,1.1-0.6,1.6
		c0,0.3-0.5,0.7-0.5,1.1v0.3c0,0.1,0,0.2,0,0.3c0,0.1-0.3,0.5-0.3,0.7c0,0.3,0,0.6,0,1c0,0.3-0.4,0.5-0.4,0.7
		c-0.1,0.4-0.1,0.8-0.1,1.2c-0.1,0.5-0.4,1.2-0.5,1.7c0,0.1,0,0.2,0,0.3v0.4c0,0.2,0,0.4-0.1,0.6c-0.1,0.1-0.2,0.1-0.3,0.2
		c-0.1,0.1-0.1,0.2-0.1,0.6c0,0.1,0,0.1,0,0.2c-0.1,0.1-0.2,0.3-0.2,0.4c0,0.2,0,0.3,0,0.5v0.5c0,0.2-0.3,0.4-0.3,0.6v0.5
		c0,0.2-0.2,0.7-0.4,1.3c-0.1,0.4-0.3,0.5-0.3,0.9c-0.1,0.3-0.1,0.8-0.3,1.1l-0.2,0.2c-0.2,0.3-0.1,0.6-0.2,0.9
		c-0.1,0.4-0.3,0.9-0.5,1.2c-0.1,0.3-0.2,0.6-0.2,0.8c0,0.1,0,0.1,0,0.1c0.1,0.2,0.5,0.1,0.7,0.2c0.2,0.1,0.5,0.4,0.8,0.5h0.3
		c0.1,0,0.2,0.3,0.3,0.3c0.1,0.1,0.3,0.1,0.5,0.1c0.7,0.4,1.1,0.9,1.4,1.8c0,0.1,0.2,0.5,0.2,0.7c0,0.2,0,0.7-0.1,0.9
		c0,0.4-0.2,0.6-0.4,1c-0.3,0.5-0.8,0.9-1.3,1.1c-0.3,0.1-0.5,0.1-0.7,0.2c-0.5,0-0.8,0-1-0.2c-0.2-0.1-0.4-0.3-0.4-0.5
		c0-0.1,0-0.2,0.1-0.3c0.1-0.1,0.2-0.2,0.3-0.2c0.1,0,0.2,0.1,0.3,0.1c0.1,0.1,0.1,0.3,0.3,0.4c0.1,0.1,0.3,0.1,0.4,0.1
		c0.1,0,0.1,0,0.2,0c0.5-0.2,0.6-0.5,0.8-1c0.1-0.2,0.1-0.5,0.1-0.8s0-0.6-0.1-0.8c-0.1-0.5-0.3-0.7-0.5-1.1c0,0,0-0.1-0.1-0.1
		c-0.4-0.7-1.6-1.4-2.7-1.6c-0.3,0.7-0.4,1.3-0.7,1.8c-0.1,0.1-0.3,0.2-0.3,0.3c0,0.2,0,0.4,0,0.5c0,0.1-0.2,0.5-0.3,0.6
		c-0.1,0.2-0.4,0.3-0.4,0.4c0,0.2,0,0.4,0,0.6c-0.1,0.2-0.5,0.5-0.5,0.6v0.4c0,0.1-0.3,0.3-0.3,0.4c-0.1,0.4,0,0.6-0.2,0.9
		c-0.2,0.5-0.5,0.9-0.7,1.3c-0.1,0.2-0.2,0.5-0.3,0.6c-0.1,0.2-0.4,0.8-0.6,0.9c-0.3,0.2-0.1,0.6-0.3,0.9c-0.2,0.2-0.3,0.4-0.4,0.6
		c-0.2,0.3-0.5,0.5-0.7,1c0,0.1-0.2,0.4-0.3,0.5c-0.1,0.2-0.3,0.1-0.4,0.2c-0.1,0.1-0.1,0.2-0.1,0.3c-0.1,0.1-0.7,0.8-0.9,0.9
		c-0.4,0.2-0.6,0.7-1,1c-0.1,0.1-0.2,0-0.3,0.1c-0.1,0.1-0.2,0.3-0.3,0.4c-0.1,0-0.1,0.1-0.2,0.1s-0.1,0-0.2,0c-0.1,0-0.1,0-0.2,0.1
		c-0.1,0.1-0.1,0.1-0.1,0.2c-0.1,0.2-0.4,0.3-0.6,0.3H106c-0.2,0.1-0.4,0.4-0.6,0.5c-0.6,0.3-1.3,0.6-2,0.6c-0.2,0-0.6,0.2-0.9,0.2
		c-0.6,0-1.1,0-1.6,0c-0.7,0-1.4-0.1-2.1-0.3l-0.9-0.3c-0.1,0-0.3-0.3-0.5-0.3c-0.2-0.1-0.2-0.1-0.5-0.2c-0.4-0.2-1.3-1-1.5-1.3
		c-0.5-0.7-0.8-1.4-1.1-2.8c-0.1-0.3-0.1-0.6-0.1-0.9c0-0.1,0-0.3,0-0.3c0-0.2,0-0.3,0-0.6c0-1.5,0.7-3.2,1.2-4
		c1.5-2.6,3.6-4.2,6.1-5.5c1.7-0.8,3.9-1.7,5.7-2c0.1,0,0.2,0,0.3,0c0.2,0,0.3,0,0.5,0c0.2,0,0.5-0.2,0.8-0.2
		c0.7-0.1,1.3-0.1,1.9-0.1s1.3,0,2.1,0.1c0.4,0,1.6,0.2,2,0.2c0.1,0,0.1,0,0.2,0c0.1-0.1,0.3-0.3,0.3-0.4c0-0.1,0.2-0.3,0.2-0.5
		c0-0.3,0.3-0.7,0.3-1c0-0.1,0-0.5,0.1-0.6c0.1-0.6,0.7-1.8,0.9-2.8l0.2-0.9c0.5-1.9,1.1-3.8,1.6-5.7c0.1-0.5,0.1-1,0.2-1.5
		c0-0.1,0.3-0.3,0.3-0.5c0.1-0.2,0.1-0.4,0.1-0.8c0-0.1,0-0.3,0.1-0.4c0-0.1,0.2-0.4,0.3-0.6c0.1-0.6,0.3-1.1,0.4-1.7
		c0.3-1.2,0.9-2.7,1-3.5c0,0-0.1-0.1-0.2-0.1c-0.4,0.1-0.6,0.3-0.9,0.5l-0.5,0.4c-0.3,0.3-0.9,0.3-1.2,0.7c-0.2,0.3-1,0.7-1.1,0.8
		c-0.1,0.1-0.3,0.3-0.4,0.4c-0.2,0.1-0.4,0-0.5,0.1c-0.1,0.1-0.1,0.3-0.3,0.4c-0.1,0.1-0.4,0-0.5,0.1c-0.2,0.3-0.8,0.5-1.1,0.7
		l-1.1,0.9c-0.1,0.1-0.4,0.2-0.6,0.3c-0.3,0.1-0.2,0.6-0.5,0.7c-0.1,0-0.7,0.5-0.9,0.7c-0.1,0.1-0.2,0-0.2,0.1
		c-0.1,0.1-0.1,0.5-0.3,0.6c-0.2,0.1-0.4,0.2-0.6,0.3c-0.2,0.1-0.1,0.4-0.3,0.5c-0.1,0.1-0.2,0.1-0.3,0.2c-0.1,0.1-0.3,0.4-0.3,0.6
		c0,0.1-0.2,0.2-0.3,0.3c-0.4,0.8-0.4,1.3-0.5,1.5c-0.1,0.3-0.3,0.3-0.3,0.8c0,0.3,0,0.4,0,0.5c0,0.1,0,0.3,0.1,0.5
		c0,0.3-0.1,0.4-0.1,0.7c0,0.3,0.1,0.5,0.1,0.7c0,0.5,1.2,1.7,1.6,1.9c0.5,0.2,0.9,0.3,1.4,0.3c0.3,0,0.6-0.1,0.9-0.1
		c0.4-0.1,0.6-0.2,0.9-0.3c0.2-0.1,0.3-0.4,0.5-0.5c0,0,0.1,0,0.1,0c0,0,0.1,0,0.1,0c0.6-0.7,0.8-1.4,0.8-2.1c0-0.3,0-0.5-0.1-0.8
		c-0.1-0.5-0.2-0.3-0.3-0.5c-0.1,0-0.2,0-0.3,0c-0.5,0-0.9-0.3-0.9-0.8c0-0.4,0.3-0.5,0.5-0.5h0.1c0.5,0,1.1,0.3,1.3,0.8
		c0.1,0.3,0.3,0.4,0.4,0.6c0.1,0.3,0.1,0.6,0.1,0.9c0,0.3,0,0.6-0.1,0.9c-0.2,1.1-1.1,2.3-2.1,2.8h-0.3c-0.2,0-0.6,0.3-0.8,0.3
		c-0.4,0.1-0.8,0.1-1.1,0.1s-0.6,0-0.9-0.1c-1.7-0.3-3.1-0.9-3.5-2.4c-0.1-0.2-0.1-0.4-0.1-0.5c0-0.2-0.3-0.6-0.3-0.8
		c0-0.3,0-0.7,0-1c0-1.7,0.9-3.2,1.8-4.3c0.2-0.3,0.8-0.5,1.1-0.8c0.4-0.5,1.9-1.4,2-1.5c0.1-0.1,0.3-0.2,0.4-0.3
		c0.2-0.2,0.4-0.2,0.6-0.3c0.1-0.1,0.6-0.5,0.6-0.5c0.3-0.2,0.5-0.3,0.9-0.5c0.3-0.2,0.6-0.4,0.7-0.5c0.2-0.1,0.3-0.1,0.5-0.1
		c0.1-0.1,0.3-0.3,0.3-0.3c0.2-0.1,0.5-0.3,0.7-0.4c0.2-0.1,0.6-0.3,0.7-0.4c0.1-0.2,0.5-0.2,0.7-0.3c0.2-0.1,0.4-0.5,0.7-0.6
		c0.7-0.5,1.2-0.7,1.8-1.3c0.2-0.2,0.5-0.4,0.6-0.5c0.7-0.6,1.3-1.1,1.9-1.6c0.5-0.3,0.9-0.8,1.1-1.2c0.1-0.1,0.3-0.3,0.4-0.3
		C123.9,43.2,124,43.2,124,43.2z M113.2,68.8c-0.3,0-0.7-0.1-1-0.1c-0.4,0-0.8,0-1.1,0c-0.7,0-1.3,0-1.9,0c-0.2,0-0.5,0.1-0.7,0.1
		c-0.9,0-1.5,0.3-2.3,0.5c-0.3,0.1-0.9,0.3-1.3,0.3l-0.1,0.1c-0.2,0.1-0.4,0.1-0.6,0.3c-0.1,0.1-0.3,0.3-0.3,0.3
		c-0.3,0.1-0.7,0.1-1,0.2c-0.3,0-1.1,0.7-1.3,0.7c-0.1,0.1-0.4,0.4-0.5,0.4l-0.3,0.1c-0.2,0.1-0.6,0.3-0.8,0.5
		c-0.2,0.1-0.1,0.4-0.2,0.5c-0.2,0.2-0.4,0.1-0.5,0.3c-0.1,0.3-0.8,0.9-0.9,1c0,0,0,0.1,0,0.1c-0.1,0.1-0.7,0.5-0.7,0.5
		c-0.1,0.1-0.1,0.1-0.1,0.2v0.1c-0.2,0.4-0.6,0.7-0.9,1.3c0,0,0,0.1,0,0.1c0,0.1,0,0.1,0,0.2c0,0.1-0.3,0.2-0.3,0.3
		c0,0.2-0.1,0.3-0.1,0.5c0,0.3-0.5,0.8-0.5,1.1s-0.1,0.7-0.1,1c-0.1,0.5-0.2,0.9-0.2,1.4c0,0.1,0,0.3,0,0.4c0,0.1,0.1,0.3,0.1,0.4
		c0,0.5,0.3,0.9,0.3,1.3v0.1c0,0.2,0.2,0.3,0.3,0.4l0.3,0.6c0.1,0.3,0.4,0.3,0.6,0.5c0.1,0.1,0.3,0.1,0.4,0.2
		c0.1,0.2,0.3,0.1,0.5,0.3c0.2,0.1,0.6,0.4,0.8,0.4c0.3,0,0.8,0.1,1.1,0.1c0.4,0.1,0.7,0.1,1.1,0.1c0.5,0,1-0.1,1.6-0.2
		c0.2,0,0.5-0.2,0.6-0.2c0.5,0,1.3-0.4,1.7-0.6c1-0.5,1.7-1,2.4-1.6c1-1,1.8-2.4,2.6-3.6c0.3-0.4,0.4-0.9,0.6-1.3
		c0.3-0.2,0.7-1.4,0.9-1.7c0.1-0.1,0.3-0.3,0.3-0.4c0.4-0.9,0.6-1.8,1-2.6c0.1-0.2,0.4-0.4,0.4-0.7c0-0.2,0-0.3,0.1-0.5
		c0.2-0.5,0.7-1,0.7-1.5v-0.3c0.2-0.5,0.3-0.7,0.4-1.4C114.3,69,113.5,68.8,113.2,68.8z"/>
	<path d="M129.6,63.8c-0.1,0.1-0.3,0.1-0.3,0.1c-0.1,0.1-0.1,0.3-0.3,0.4c-0.2,0.1-0.3,0.1-0.5,0.3c-0.2,0.1-0.8,0.9-1,1.1
		c-0.2,0.1-0.4,0.1-0.5,0.2c-0.2,0.1-0.8,0.7-1,0.7c-0.6,0-1.1,0.5-1.8,0.5c-0.1,0-0.1,0-0.2,0c-0.2,0-0.4,0.2-0.7,0.2
		c-0.1,0-0.1,0-0.1,0c-0.1,0-0.8-0.1-0.8-0.1c-0.7-0.2-1.1-0.5-1.3-1.1c-0.1-0.1-0.2-0.3-0.2-0.5c-0.1-0.4-0.1-0.6-0.1-0.9
		c0-0.3,0-0.5,0.1-0.9c0.1-0.4,0.1-0.7,0.2-1c0.2-0.5,0.4-1,0.8-1.5c0-0.1,0.2-0.2,0.3-0.2c0.1-0.2,0.1-0.3,0.3-0.5
		c0.1-0.2,0.3-0.3,0.4-0.5c0.4-0.5,0.9-0.9,1.3-1.3c0.3-0.2,1.2-0.7,2.1-0.7c0.4,0,0.8,0.2,1.1,0.5c0.3,0.3,0.4,0.6,0.4,1
		c0,0.5-0.2,0.9-0.3,1.1c-0.1,0.1-0.2,0.1-0.3,0.2c-0.2,0.2-0.1,0.5-0.3,0.7c-0.1,0.2-0.4,0.3-0.5,0.5c-0.1,0.1-0.2,0.2-0.3,0.3
		c-0.4,0.4-0.7,0.6-1.1,0.7c0,0-0.3,0-0.4,0.1c-0.2,0.1-0.4,0.3-0.5,0.3c-0.3,0.2-0.9,0.1-1.2,0.4c-0.1,0.1-0.2,0.7-0.2,0.8
		c0,0.1,0,0.2,0,0.4c0,0.2,0,0.4,0,0.5c0.1,0.8,0.7,1.1,1.4,1.1c0.2,0,0.3,0,0.5-0.1c1.1-0.2,1.4-0.5,2.7-1.4c0.4-0.3,1-0.8,1.4-1.2
		c0.2-0.2,0.4-0.5,0.7-0.6c0.3-0.1,0.6-1.1,1.2-1.2c0.1,0,0.2,0.1,0.2,0.1c0,0.1,0,0.3-0.1,0.4c-0.1,0.2-0.4,0.3-0.6,0.5
		C129.9,63.2,129.7,63.7,129.6,63.8z M126.4,58.8c-0.1,0-0.4,0.1-0.5,0.2c-0.2,0.2-0.3,0.4-0.6,0.6c-0.2,0.2-0.4,0.3-0.7,0.4
		c-0.1,0.1-0.1,0.2-0.1,0.3c-0.1,0.1-0.3,0.2-0.4,0.3c-0.3,0.2-0.3,0.6-0.4,0.9c-0.2,0.4-0.4,0.5-0.4,1.1c0.1,0.1,0.3,0.1,0.4,0.1
		c0.4,0,0.8-0.2,1.1-0.3c0.2-0.1,0.5-0.2,0.8-0.4c0.1-0.1,0.1-0.2,0.2-0.3c0.7-0.7,1.1-1.4,1.1-2.3c0-0.1,0-0.3-0.3-0.4
		C126.6,58.8,126.5,58.8,126.4,58.8z"/>
	<path d="M145.4,58.6c0,0.2,0,0.6-0.1,0.9c-0.2,0.5-0.3,1.2-0.5,1.7c-0.1,0.1-0.1,0.3-0.1,0.4c-0.3,0.6-0.5,1.1-0.9,1.6
		c-0.1,0.2-0.4,0.4-0.5,0.6c-0.1,0.1-0.1,0.2-0.1,0.3c-0.1,0.1-0.2,0.1-0.3,0.1l-0.6,0.9c-0.1,0.1-0.3,0.2-0.4,0.3
		c-0.3,0.4-0.7,0.6-1.1,0.9c-0.1,0.1-0.2,0.2-0.3,0.2c-0.1,0-0.2,0.2-0.3,0.2c-0.2,0.1-0.5,0.1-0.9,0.1c-0.3,0-0.5,0-0.7-0.1
		c-0.2-0.1-0.3-0.3-0.5-0.4c-0.1,0-0.2,0-0.2-0.1c-0.1-0.1-0.2-0.3-0.3-0.4c-0.1-0.2-0.1-0.4-0.1-0.6c0-0.2,0-0.4,0-0.6
		c0-0.1,0-0.2,0-0.3c0-0.1,0-0.2,0-0.3c0.1-0.5,0.2-1,0.2-1.4v-0.3c0-0.2,0.1-0.3,0.2-0.6c-0.9,0.8-1.6,1.6-2.4,2.3
		c-0.2,0.2-0.4,0.4-0.6,0.6c-0.1,0-0.1,0-0.2,0.1c-0.1,0.1-0.2,0.3-0.3,0.4c-0.3,0.2-0.6,0.3-0.8,0.5c0,0.2-0.1,0.3-0.2,0.4
		c-0.1,0.1-0.4,0.1-0.5,0.3c-0.1,0.1-0.1,0.3-0.2,0.4c-0.1,0.1-0.3,0.4-0.4,0.5c-0.1,0-0.1,0-0.2,0.1c-0.1,0.1-0.1,0.1-0.1,0.2
		c0,0,0,0.1,0,0.2c-0.1,0.1-0.2,0.3-0.3,0.3c-0.1,0-0.2,0.1-0.3,0.1c-0.2,0-0.3-0.1-0.4-0.1c-0.3-0.1-0.5-0.2-0.5-0.5
		c0-0.1,0-0.1,0.1-0.2c0.1-0.3,0.1-0.3,0.2-0.6c0.1-0.3,0.3-0.7,0.5-1.1c0.1-0.3,0.2-0.7,0.3-1c0.2-0.8,0.3-0.7,0.5-1.1
		c0.2-0.5,0.3-1.1,0.5-1.6c0.3-0.7,0.7-1.6,0.9-2.4c0,0-0.1-0.1-0.1-0.1c-0.1,0-1.1,1.2-1.2,1.3c-0.6,0.7-0.9,1.2-1.3,1.4
		c-0.4,0.2-0.5,0.6-0.7,0.6c-0.2,0-0.3-0.1-0.3-0.2c0-0.1,0-0.1,0.1-0.2l0.5-0.5c0.1-0.3,0.3-0.2,0.5-0.4c0.2-0.2,0.1-0.4,0.4-0.7
		c0.2-0.2,0.3-0.2,0.6-0.5c0.3-0.3,0.6-0.8,1-1.3c0.5-0.5,0.2-0.7,0.8-1.1c0.1-0.1,0.3-0.1,0.5-0.2c0.3-0.1,0.6-0.6,0.9-0.6
		c0.1,0,0.1,0,0.2,0.1c0.3,0.2,0.3,0.5,0.3,0.8c0,0.5-0.3,1.2-0.3,1.7V60c0,0.5-0.2,1.2-0.5,1.6c-0.1,0.1-0.2,0.2-0.3,0.4
		c-0.4,0.8-0.6,1.7-0.8,2.6c0.1,0,0.1,0.1,0.1,0.1c0.6-0.3,1-0.8,1.4-1.2c0.3-0.3,0.8-0.6,1.1-0.9c0.2-0.3,0.3-0.5,0.5-0.8
		c0.1-0.1,0.4-0.3,0.5-0.4c0.1-0.1,0.2-0.3,0.3-0.4c0.2-0.2,0.4-0.4,0.6-0.6c0.4-0.4,0.7-1.6,1.3-1.6c0.3,0,0.4,0.1,0.5,0.3
		c0.1,0.1,0.1,0.6,0.1,1c0,0.2,0,0.3,0,0.5c0,0.1-0.1,0.2-0.1,0.3c0,0.1,0,0.1,0,0.2c0,0,0,0.1,0,0.1c0,0.3-0.3,0.6-0.3,0.8v0.4
		c0,0.7-0.3,1.6-0.3,2.4c0,0.4,0.1,0.8,0.4,1c0.1,0.1,0.2,0.1,0.3,0.1c0.2,0,0.3-0.1,0.5-0.1c0.2-0.1,0.3-0.1,0.5-0.3
		c0,0,0.1-0.1,0.1-0.2c0.3-0.3,0.5-0.4,0.8-0.7c0.1,0,0.1-0.1,0.2-0.1c0.4-0.5,0.6-1,0.9-1.5c0.1-0.1,0.2,0,0.2-0.1
		c0.2-0.2,0.3-0.6,0.5-0.9c0.4-0.7,0.7-2,0.8-2.3v-0.3c0-0.1,0-0.2,0-0.3c0.1-0.6,0.2-1.2,0.2-1.8c0-0.4,0-0.8-0.1-1.1
		c-0.1-0.3,0-0.6-0.1-0.8l-0.1-0.1c-0.1-0.3-0.3-0.6-0.6-0.7c-0.6-0.2-1.4-0.1-1.4-0.8c0,0,0.1-0.2,0.1-0.3c0.1-0.1,0.3-0.2,0.4-0.2
		c0.6,0,0.9,0.3,1.2,0.4c0,0.3,0.3,0.2,0.3,0.4c0.2,0.3,0.3,0.6,0.4,0.8c0.1,0.1,0.2,0.2,0.2,0.3c0.1,0.2,0.1,0.6,0.1,0.8
		c0.1,0.4,0.1,0.8,0.1,1.1V58.6z"/>
	<path d="M154.4,63.8c-0.1,0.1-0.3,0.1-0.3,0.1c-0.1,0.1-0.1,0.3-0.3,0.4c-0.2,0.1-0.3,0.1-0.5,0.3c-0.2,0.1-0.8,0.9-1,1.1
		c-0.2,0.1-0.4,0.1-0.5,0.2c-0.2,0.1-0.8,0.7-1,0.7c-0.6,0-1.1,0.5-1.8,0.5c-0.1,0-0.1,0-0.2,0c-0.2,0-0.4,0.2-0.7,0.2
		c-0.1,0-0.1,0-0.1,0c-0.1,0-0.8-0.1-0.8-0.1c-0.7-0.2-1.1-0.5-1.3-1.1c-0.1-0.1-0.2-0.3-0.2-0.5c-0.1-0.4-0.1-0.6-0.1-0.9
		c0-0.3,0-0.5,0.1-0.9c0.1-0.4,0.1-0.7,0.2-1c0.2-0.5,0.4-1,0.8-1.5c0-0.1,0.2-0.2,0.3-0.2c0.1-0.2,0.1-0.3,0.3-0.5
		c0.1-0.2,0.3-0.3,0.4-0.5c0.4-0.5,0.9-0.9,1.3-1.3c0.3-0.2,1.2-0.7,2.1-0.7c0.4,0,0.8,0.2,1.1,0.5c0.3,0.3,0.4,0.6,0.4,1
		c0,0.5-0.2,0.9-0.3,1.1c-0.1,0.1-0.2,0.1-0.3,0.2c-0.2,0.2-0.1,0.5-0.3,0.7c-0.1,0.2-0.4,0.3-0.5,0.5c-0.1,0.1-0.2,0.2-0.3,0.3
		c-0.4,0.4-0.7,0.6-1.1,0.7c0,0-0.3,0-0.4,0.1c-0.2,0.1-0.4,0.3-0.5,0.3c-0.3,0.2-0.9,0.1-1.2,0.4c-0.1,0.1-0.2,0.7-0.2,0.8
		c0,0.1,0,0.2,0,0.4c0,0.2,0,0.4,0,0.5c0.1,0.8,0.7,1.1,1.4,1.1c0.2,0,0.3,0,0.5-0.1c1.1-0.2,1.4-0.5,2.7-1.4c0.4-0.3,1-0.8,1.4-1.2
		c0.2-0.2,0.4-0.5,0.7-0.6s0.6-1.1,1.2-1.2c0.1,0,0.2,0.1,0.2,0.1c0,0.1,0,0.3-0.1,0.4c-0.1,0.2-0.4,0.3-0.6,0.5
		C154.7,63.2,154.5,63.7,154.4,63.8z M151.3,58.8c-0.1,0-0.4,0.1-0.5,0.2c-0.2,0.2-0.3,0.4-0.6,0.6c-0.2,0.2-0.4,0.3-0.7,0.4
		c-0.1,0.1-0.1,0.2-0.1,0.3c-0.1,0.1-0.3,0.2-0.4,0.3c-0.3,0.2-0.3,0.6-0.4,0.9c-0.2,0.4-0.4,0.5-0.4,1.1c0.1,0.1,0.3,0.1,0.4,0.1
		c0.4,0,0.8-0.2,1.1-0.3c0.2-0.1,0.5-0.2,0.8-0.4c0.1-0.1,0.1-0.2,0.2-0.3c0.7-0.7,1.1-1.4,1.1-2.3c0-0.1,0-0.3-0.3-0.4
		C151.4,58.8,151.4,58.8,151.3,58.8z"/>
	<path d="M158.8,60.5c0,0.5-0.2,0.8-0.2,1.1c0,0.2,0,0.3,0,0.5s0,0.3,0,0.5c-0.1,0.3-0.1,0.9-0.1,1.3c0,0.2-0.1,0.2-0.1,0.4
		c0,0.1,0.1,0.2,0.1,0.3c0,0.1,0,0.3,0,0.4c0,0.1-0.1,0.3-0.1,0.4c0,0.1,0.1,0.3,0.1,0.3c0.1,0.8,0.2,1.3,0.3,1.8
		c0.2,0.5,0.6,0.8,0.8,0.9c0.3,0.1,0.7,0.2,1,0.2c0.1,0,0.2,0,0.2,0.2c0,0.1,0,0.1-0.1,0.1c-0.1,0.1-0.1,0.1-0.2,0.1h-0.2
		c-0.8,0-1.5-0.4-1.9-0.8c-0.1-0.2-0.3-0.3-0.4-0.4c-0.1-0.1,0-0.2-0.1-0.3c-0.1-0.1-0.2-0.1-0.3-0.2c-0.2-0.3-0.2-0.7-0.3-1.1
		c0,0,0-0.1,0-0.1c0,0,0-0.1,0-0.1c0-0.1-0.1-0.2-0.2-0.3c-0.1-1-0.1-1.6-0.1-2.3c0-0.9,0.1-1.8,0.2-2.6c-0.3,0-0.4,0.5-0.5,0.6
		c-0.3,0.4-0.6,0.7-0.9,1c-0.1,0.1-0.2,0.1-0.3,0.2c-0.1,0.1-0.2,0.2-0.3,0.2c0,0-0.1,0-0.1,0c-0.1-0.1-0.1-0.1-0.1-0.2
		c0-0.1,0-0.1,0.1-0.2c0.1-0.1,0.1-0.1,0.2-0.1c0.1-0.1,0.1-0.2,0.2-0.3l0.3-0.3c0.3-0.3,0.3-0.5,0.5-0.7c0.4-0.5,0.7-0.9,1.1-1.4
		c0.2-0.5,0.3-1.6,0.5-2.1c0.3-1.1,0.6-2.3,1.1-3.3c0.1-0.3,0.5-0.5,0.6-0.8v-0.5c0.3-0.5,0.2-0.8,0.5-1.4c0.1-0.2,0.5-0.5,0.5-0.8
		c0.3-0.8,0.8-1.5,1.2-2.2c0.4-0.5,0.5-0.4,0.6-0.6c0.1-0.1,0-0.4,0.2-0.5c0,0,0.3-0.4,0.4-0.5c0.2-0.2,0.6-0.5,0.9-0.5
		c0.3-0.1,0.6-0.2,0.9-0.2c0.1,0,0.3,0,0.4,0.1c0.7,0.2,0.9,0.9,0.9,1.8c0,0.5-0.1,0.9-0.2,1.3c-0.1,0.4-0.2,1-0.5,1.3
		c-0.2,0.2-0.2,0.7-0.5,1.2c-0.4,1.1-1.2,2.3-1.8,3.2c-0.3,0.4-0.7,1-1,1.4c-0.2,0.3-0.6,0.3-0.7,0.6c0,0,0,0.3-0.1,0.4l-0.5,0.5
		c-0.3,0.2-0.4,0.5-0.6,0.7c-0.5,0.5-0.6,0.7-0.7,0.8C158.9,60,158.8,60,158.8,60.5z M163.4,48.2c-0.1,0.1-0.2,0.4-0.2,0.6
		c-0.1,0.1-0.3,0.2-0.4,0.4c0,0,0.1,0.1,0.1,0.3c0,0,0,0.1,0,0.1c-0.5,0.8-1,1.8-1,2c0,0.1-0.2,0.5-0.2,0.6c0,0.1-0.2,0.1-0.2,0.3
		c0,0.1-0.2,0.2-0.3,0.2c0,0.1,0,0.2,0,0.3c-0.1,0.5-0.3,0.7-0.5,1.1l-0.4,1.1c-0.1,0.2-0.3,0.5-0.4,0.7c0,0.1,0,0.4-0.1,0.5
		l-0.1,0.2c-0.3,0.7-0.4,1.1-0.5,1.8c0.2-0.1,0.3-0.3,0.9-0.8c0.1-0.1,0.3-0.3,0.4-0.5c0.5-0.6,0.8-0.9,1.2-1.6
		c0.1-0.2,0.5-0.3,0.6-0.4c0.3-0.4,0.1-0.4,0.4-0.9c0.1-0.2,0.6-1,0.7-1.1c0.3-0.6,0.7-1.5,0.9-2.1c0.4-1,0.5-1.8,0.5-2.4
		c0-0.2,0-0.3-0.1-0.5c-0.1-0.4-0.4-0.5-0.7-0.5C163.8,47.6,163.7,47.9,163.4,48.2z"/>
	<path d="M165.2,57c0,0.1,0,0.2-0.1,0.3c-0.1,0.3-0.5,0.6-0.6,0.9c0,0.1-0.1,0.2-0.1,0.3c0,0.2,0.1,0.4,0.4,0.5
		c0.3,0.2,1.4,0.5,1.6,0.7c0.2,0.1,0.4,0.5,0.4,0.9c0,0.1,0,0.1,0,0.2c-0.1,0.7-0.5,1.4-0.8,1.9c-0.2,0.5-0.2,1.1-0.3,1.5
		c-0.1,0.2-0.1,0.4-0.1,0.6c0,0.5,0.1,0.9,0.4,1.1c0.1,0.1,0.3,0.1,0.4,0.1c0.4,0,0.8-0.2,1-0.4l0.4-0.2c0.3-0.2,0.5-0.4,0.7-0.6
		c0.4-0.4,1-1.1,1.4-1.5c0.3-0.2,0.6-1.1,1.1-1.1c0.1,0,0.1,0,0.2,0.1c0,0,0.1,0.1,0.1,0.2c0,0,0,0.1-0.1,0.1
		c-0.2,0.3-0.6,0.7-0.8,1c-0.1,0.1-0.2,0.1-0.3,0.2c-0.1,0.1-0.2,0.2-0.2,0.3c-0.2,0.2-0.5,0.4-0.7,0.6c-0.2,0.1-0.3,0.5-0.5,0.6
		c-0.6,0.5-1.3,0.9-2,1.3c-0.4,0.2-0.8,0.3-1.2,0.3c-0.7,0-1.4-0.3-1.7-1c-0.1-0.1-0.1-0.3-0.1-0.5c0-0.2,0-0.5,0-0.7
		c0-0.2,0-0.3-0.1-0.5c0-0.3,0.1-0.8,0.1-0.9c0.1-0.5,0.2-1,0.4-1.5c0.1-0.3,0.4-0.7,0.4-1c0-0.1,0-0.1,0-0.2
		c-0.1-0.3-0.3-0.6-0.8-0.7c0,0-0.1-0.1-0.1-0.1s-0.1,0-0.1,0.1c-0.3,0.3-0.7,0.6-0.9,0.9c-0.3,0.4-0.6,0.8-0.9,1.1
		c-0.2,0.1-0.6,0.4-0.7,0.5c-0.2,0.3-0.2,0.4-0.4,0.5c-0.2,0-0.3-0.1-0.3-0.2c0-0.1,0-0.1,0.1-0.2c0.2-0.2,0.3-0.3,0.4-0.5
		c0.1-0.1,0.2-0.2,0.3-0.3c0.3-0.3,0.6-0.6,0.9-1c0.2-0.2,0.3-0.3,0.5-0.5c0.1-0.1,0.2-0.5,0.3-0.5c0.1-0.1,0.2-0.1,0.3-0.3
		c0,0,0.1-0.3,0.1-0.5c0-0.1,0-0.2,0-0.4v-0.4c0-0.8,0.2-1.4,0.6-1.8c0.1-0.1,0.3-0.2,0.4-0.3c0.1,0,0.1,0,0.1,0
		c0.1,0,0.3,0.1,0.4,0.2C165.1,56.7,165.2,56.8,165.2,57z"/>
	<path d="M178.7,65c0.1-0.3,0.5-1.6,0.6-1.9c0.1-0.3,0.1-0.5,0.2-0.7c-0.3,0-0.3,0.4-0.7,0.5c-0.4,0.4-0.5,0.6-0.9,1
		c-0.1,0.1-0.4,0.2-0.5,0.3c-0.1,0.1-0.2,0.3-0.3,0.4l-0.5,0.5c-0.3,0.2-0.9,0.7-1.2,0.9c-0.7,0.5-0.5,0.5-1.7,1
		c-0.2,0.1-0.7,0.3-1.1,0.3c-0.1,0-0.5-0.3-0.5-0.5c-0.1-0.3-0.1-0.4-0.1-0.6c0-0.1,0-0.1,0-0.2c0-0.1,0-0.2,0.1-0.3
		c0.1-0.7,0.2-0.9,0.5-1.6l0.1-0.2c0.2-0.5,0.3-0.9,0.5-1.2c0.1-0.1,0.2-0.5,0.3-0.7c0.3-0.4,0.3-0.9,0.5-1.4c0-0.1-0.3-0.1-0.3-0.1
		c-0.3,0.4-0.6,0.6-1.1,1.1c-0.2,0.2-0.4,0.5-0.6,0.7c-0.2,0.2-0.4,0.3-0.5,0.5c-0.2,0.2-0.4,0.5-0.7,0.5c-0.1,0-0.2-0.1-0.2-0.2
		c0-0.1,0-0.1,0.1-0.2c0.1-0.2,0.2-0.2,0.4-0.5c0.1-0.1,0.4-0.4,0.5-0.4c0.1-0.2,0.4-0.4,0.6-0.6l0.1-0.1c0.3-0.3,0.4-0.6,0.7-0.9
		c0.1-0.1,0.5-0.5,0.9-0.9c0.4-0.5,0.1-0.2,0.5-0.7c0.1-0.1,0.2-0.3,0.3-0.4c0.2-0.2,0.3-0.1,0.4-0.3c0.1,0,0.1-0.1,0.1-0.1
		c0.2-0.2,0.4-0.5,0.6-0.5c0.3,0,0.5,0.5,0.5,0.6c0.1,0.3,0.1,0.5,0.1,0.8c0,0.3-0.1,0.5-0.2,0.8c-0.3,0.5-0.5,1.1-0.8,1.8
		c0,0.1-0.3,0.2-0.3,0.3c0,0.1,0.1,0.2,0.1,0.3l-0.4,1c-0.1,0.2-0.1,0.3-0.1,0.5c-0.1,0.1-0.2,0.3-0.3,0.6c-0.1,0.3-0.2,0.8-0.2,1.1
		c0,0.2,0,0.4,0.2,0.5c0.1,0,0.2,0.1,0.3,0.1c0.1,0,0.3,0,0.5-0.2c0.1-0.1,0.7-0.4,0.8-0.5c0.6-0.6,0.7-0.6,1.3-1.1
		c0.3-0.2,1-1,1.3-1.3c0.9-0.9,1.1-1.2,2-2.4c0.6-0.8,1-2.4,1.5-2.8c0.1,0,0.1-0.1,0.2-0.1c0.1,0,0.3,0.1,0.3,0.3
		c0.2,0.4,0.3,0.5,0.3,0.8c0,0.1,0,0.1,0,0.2c0,0.1,0.1,0.3,0.1,0.5c-0.1,0.7-0.7,1-0.8,1.7c-0.1,0.7-0.3,1.2-0.6,1.8
		c-0.3,0.6-0.3,1.2-0.5,1.8c-0.2,0.5-0.6,2-0.8,2.5c-0.2,0.7-0.7,2.2-1,2.7c-0.2,0.3-0.4,0.3-0.4,0.4c0,0,0,0.1,0,0.1
		c0,0.1,0.1,0.3,0.1,0.5c0,0,0,0.1,0,0.1c-0.4,0.8-0.3,0.7-0.7,1.4c-0.3,0.5-0.4,0.9-0.7,1.3c-0.1,0.1-0.3,0.3-0.4,0.5
		c-0.1,0.2-0.1,0.3-0.2,0.5l-0.3,0.5c-0.1,0.2,0,0.4-0.2,0.5c-0.2,0.2-0.4,0.5-0.6,0.7c-0.1,0.1-0.2,0.5-0.3,0.6
		c-0.3,0.1-0.2,0.4-0.4,0.6c-0.3,0.3-0.5,0.6-0.7,0.9c-0.2,0.3-0.5,0.6-0.7,0.9c-0.2,0.3-0.6,0.5-0.8,0.7c-0.8,0.9-0.5,0.5-1.4,1.3
		c-0.2,0.1-0.3,0.3-0.5,0.5c-0.4,0.2-0.6,0.1-1,0.3c-0.1,0-0.4,0.3-0.5,0.3c-0.3,0.1-0.5,0.1-0.7,0.2c-0.3,0.1-0.6,0.1-1,0.1h-0.5
		c-0.4,0-1-0.2-1.3-0.4c-0.1,0-0.1-0.1-0.1-0.3c0-0.1,0-0.2,0.1-0.3c0.1-0.1,0.2-0.1,0.4-0.1c0.2,0,0.4,0.1,0.4,0.2
		c0.1,0.3,0.5,0.5,1,0.5c0.2,0,0.5,0,0.7-0.1c1.2-0.3,1.7-0.7,2.9-2c0.2-0.2,0.6-0.4,0.8-0.7c0,0,0.4-0.6,0.8-1.2
		c0.2-0.2,0.5-0.5,0.7-0.7c0.5-0.7,1-1.6,1.5-2.4c0.5-0.9,0.7-1.7,1.2-2.6c0-0.1,0.3-0.3,0.3-0.3c0,0,0-0.1,0-0.1c0,0,0-0.1,0-0.1
		c0.1-0.2,0.2-0.5,0.3-0.7c0.1-0.2,0.1-0.5,0.1-0.6c0.5-0.8,0.6-1.4,0.9-2.2c0.2-0.5,0.3-1.1,0.4-1.5
		C178.4,66.5,178.5,65.8,178.7,65z"/>
</g>
</svg>
