<?xml version="1.0" encoding="UTF-8"?><svg id="a" xmlns="http://www.w3.org/2000/svg" viewBox="0 0 237.37 119.91"><defs><style>.b{fill:#127d89;}.c{fill:#231f20;}</style></defs><path class="b" d="M237.37,119.91l-236.66-.09c-.98-19.77-1.53-39.76,2.3-59.18C6.41,43.43,13.51,26.45,25.63,13.53c1.38-1.47,2.84-3.22,4.5-4.38s3.88-2.03,5.79-2.88c4.27-1.88,8.73-3.35,13.28-4.4C58.3-.21,67.8-.58,77.02,.88c6.77,1.07,13.57,3.2,18.87,7.54s8.89,11.21,7.94,18c-.7,5.06-4.4,9.97-9.45,10.71s-10.51-4.16-9.22-9.1c-6.76,3.1-11.53,9.38-15.01,15.95-5.34,10.08-8.29,21.42-8.54,32.82-.24,11.07,3.42,23.92,13.73,27.95,5.01,1.96,10.73,1.37,15.76-.52,11.45-4.31,19.43-14.56,26.78-24.34,1.92,8.61,5.77,16.78,11.19,23.75,1.41,1.81,2.99,3.59,5.07,4.54,5.34,2.42,11.36-1.45,15.48-5.62,19.86-20.09,26.36-50.63,46.51-70.43,5.32-5.23,12.33-9.8,19.71-8.74,8.48,1.22,14.24,9.47,16.65,17.68,.79,2.68,1.33,5.54,.65,8.24s-2.9,5.19-5.69,5.39c-3.09,.23-5.84-2.27-8.94-2.29-2.87-.02-5.39,2.17-6.58,4.79s-1.28,5.58-1.2,8.45c.34,13.58,3.99,27.07,10.55,38.97,3.67,6.66,8.77,13.22,16.08,15.3Z"/><g><path class="c" d="M126.24,21.62c.19-.19,.49-.7,.65-.89,.07-.07,.28-.12,.33-.21,.23-.33,.37-.65,.61-.96,.33-.42,.84-1.14,1.14-1.56,.16-.21,.44-.75,.56-.93,.07-.12,.21-.35,.23-.49,0-.21,1.12-1.89,1.24-2.12,.21-.44,.28-.91,.49-1.33,.51-1,.91-2.19,1.17-3.39,.09-.37,.21-.4,.23-.79,0-.42,.16-.84,.16-1.28,0-.14-.12-.68-.12-1.1,0-.26-.21-.84-.21-1,0-.21-.23-.12-.3-.42-.09-.51-.82-.19-.98-1.03,0-.23,.23-.49,.37-.56,.07-.02,.14-.02,.21-.02,.16,0,.3,.05,.42,.12,.19,.12,.51,.37,.7,.7,.09,.16,.28,.42,.28,.58,0,.02-.02,.19-.02,.28s.09-.09,.19,.3l.16,.75c.07,.44,.09,.91,.09,1.35,0,.54-.05,1.05-.12,1.38-.14,.49-.14,.68-.26,1.19l-.21,.42c-.07,.26-.05,.54-.23,.89-.09,.23-.42,.42-.49,.68-.07,.21-.05,.44-.14,.65-.05,.14-.35,.28-.37,.44,0,.07,.02,.12,.02,.16s-.02,.12-.02,.16c0,.3-.26,.7-.4,.98-.19,.35-.26,.61-.4,.96-.09,.19-.37,.23-.42,.35-.12,.21-.33,.42-.33,.58-.02,.09-.19,.3-.23,.42-.02,.07-.02,.14-.02,.19l-.37,.63c-.21,.3-.19,.19-.37,.54l-.3,.49c-.21,.3-.37,.51-.56,.86-.02,.05-.37,.21-.4,.28-.09,.44-.3,.47-.4,.61-.07,.19-.07,.26-.21,.4-.05,.02-.02,.16-.09,.23-.09,.12-.35,.23-.35,.37-.02,.19-.12,.16-.23,.3-.14,.16-.12,.3-.3,.44-.23,.16-.19,.51-.37,.75-.02,.05-.21,.12-.23,.19-.12,.21-.23,.33-.33,.54-.07,.14-.4,.54-.4,.68-.09,.19-.42,.58-.49,.7-.09,.19-.02,.3-.12,.51-.09,.19-.28,.56-.42,.65-.07,.05-.16,.07-.23,.07-.09,0-.19-.05-.26-.07-.3-.12-.54-.35-.7-.65-.07-.14-.09-.3-.09-.49,0-.37,.09-.82,.16-1.05,.14-.51,.23-1.21,.3-1.66,.05-.23,.05-.47,.05-.7v-.37c0-.33,0-.65,.09-1,.16-.58,.19-1.7,.23-2.82,.02-.51,.07-1.05,.07-1.49,0-.21,0-.42-.05-.58-.02-.09-.02-.19-.02-.3,0-.37,.07-.93,.07-1.35,0-.3-.02-.54-.16-.65-.3,.37-.58,.72-.84,1.1-.12,.14-.23,.47-.35,.61-.09,.12-.05,.23-.16,.33-.09,.09-.23,.16-.37,.26,0,.07-.02,.12-.02,.21,0,.07-.14,.19-.16,.23,0,.05-.16,.26-.21,.3-.28,.33-.42,.51-.54,.61-.12,.07-.05,.21-.14,.3-.12,.09-.21,.12-.28,.21-.19,.21-.07,.37-.35,.58-.07,.07-.21,.35-.33,.42-.07,.05-.28,.28-.37,.35-.23,.23-.19,.4-.4,.65l-.84,1.03c-.23,.28-.23,.42-.51,.68-.14,.14-.37,.35-.49,.51-.09,.12-.05,.12-.14,.26-.07,.14-.33,.3-.42,.44-.12,.16-.37,.33-.49,.44l-.26,.28c-.07,.09-.12,.19-.16,.3-.12,.19-.42,.33-.49,.51-.05,.12-.02,.21-.09,.33-.16,.33-.56,.65-.72,1.03-.07,.14-.12,.28-.19,.4-.21,.35-.37,.72-.7,.72-.05,0-.07,0-.12-.02-.37-.16-.61-.47-.75-.84-.05-.09-.05-.23-.05-.35,0-.19,.02-.37,.07-.54,.23-.82,.82-1.68,.86-2.05,0-.09,.14-.37,.16-.47,.19-.82,.56-1.42,.77-2.12,.09-.35,0-.56,.12-.91,.26-.82,.61-1.75,.82-2.64,.09-.44,.14-.91,.26-1.35,.12-.42,.3-1.17,.3-1.77,0-.16,0-.33-.05-.47-.02-.12-.05-.23-.05-.37,0-.33,.07-.68,.12-.86,0-.02,.02-.07,.02-.09,0-.16-.16-.28-.16-.42v-.58c0-.47-.23-1.12-.42-1.38l-.58-.7c-.14-.16-.16-.35-.33-.49-.51-.42-.98-.65-1.52-.68-.3-.02-.65-.16-1.14-.16-.14,0-.72,.14-1,.16-.93,.07-1.49,.23-2.1,.65-.09,.07-.42,.21-.49,.28-.21,.16-.42,.4-.65,.54l-.28,.12c-.12,.05-.05,.23-.12,.33-.09,.12-.35,.19-.42,.3-.19,.28-.21,.37-.33,.58-.09,.16-.07,.4-.21,.54-.07,.09-.16,.16-.21,.26-.02,.05-.02,.09-.02,.14,0,.37-.19,.44-.19,.56,0,.19-.23,.58-.23,.77,0,.51,.09,.68,.09,1.28v.58c0,.35,.28,.68,.4,.98,.02,.05,.02,.09,.02,.14,0,.21,0,.26,.02,.3,.19,.28,.54,.35,.79,.58,.12,.09,.16,.3,.3,.37,.02,.02,.07,.02,.09,.02,.07,0,.12-.02,.16-.02,.19,.09,.42,.26,.65,.33,.23,.07,.51,.09,.79,.09,.3,0,.63-.02,.91-.12,.89-.26,1.63-.84,1.84-1.26,.07-.14,.05-.26,.12-.4,.07-.14,.28-.35,.33-.51,.09-.26,.14-.56,.14-.89,0-.65-.21-1.33-.72-1.49-.02-.02-.05-.02-.09-.02-.14,0-.4,.09-.63,.09h-.12c-.19-.02-.3-.21-.3-.4,0-.07,.02-.14,.05-.19,.12-.3,.35-.4,.72-.4,.28,0,.56,.14,.75,.26,.35,.21,.65,.68,.77,1.1,.05,.21,.14,.51,.14,.72,0,1-.16,1.82-.65,2.45-.54,.7-1.38,1.24-2.19,1.45-.21,.07-.72,.16-1.33,.16-.3,0-.61-.02-.93-.09-1.19-.26-2.05-.98-2.66-1.84-.4-.56-.79-1.63-.79-2.68,0-.23,.02-.49,.07-.72,.02-.12,.02-.21,.02-.3v-.33c0-.14,0-.28,.07-.47,.07-.21,.12-.51,.3-.89,.07-.14,.23-.23,.3-.35,.14-.19,.14-.37,.28-.58,.49-.75,1.63-1.52,2.33-1.87,.42-.21,1.12-.54,1.59-.54,.4,0,1.35-.3,1.87-.33,.19,0,.37-.02,.54-.02,.91,0,1.71,.16,2.48,.37,1.12,.33,1.77,.79,2.4,1.68,.63,.89,.77,1.73,.93,2.29,.14,.44,.16,.93,.16,1.4,0,.37-.02,.75-.02,1.1,0,.14-.19,.44-.19,.58,0,.54-.05,1.05-.05,1.42,0,.14-.07,.4-.07,.54,0,.12-.19,.23-.19,.4,0,.3-.16,.65-.16,.96,0,.23-.12,.33-.21,.7l-.23,1.1c-.09,.3-.28,.68-.37,.98-.12,.35-.05,.89-.28,1.14-.05,.07-.16,.07-.19,.14-.09,.33-.26,.72-.26,1.03,.02,.07,.21,.09,.26,.09,.33-.51,1.03-.89,1.31-1.38,.14-.21,.33-.35,.47-.51,.14-.16,.21-.35,.33-.51,.14-.16,.42-.35,.54-.51,0-.07,.16-.28,.21-.33,.21-.28,1.45-1.96,1.8-2.38,.35-.44,.56-.93,.96-1.31,.14-.14,.51-.75,.54-.77,.26-.47,1-1.61,1.07-1.75,.14-.23,.35-.56,.47-.82,.05-.12,.16-.42,.19-.56,.05-.26,.12-.4,.16-.65s.49-.79,.91-1.03c.14-.07,.26-.12,.37-.12,.07,0,.12,.02,.19,.05,.12,.07,.21,.26,.26,.37,.02,.07,.05,.14,.05,.21,0,.26-.12,.54-.12,.75,0,.23,.12,.56,.12,.84,0,.09-.02,.16-.05,.26-.05,.12-.07,.21-.07,.33,0,.07,.02,.16,.07,.4,.02,.09,.07,.82,.07,.86-.07,.63-.02,1.47-.09,1.84v.12c0,.23,.12,.58,.12,.89,0,.07,0,.14-.02,.21-.09,.26-.12,.93-.12,1.42,0,.68-.12,1.1-.19,1.87,0,.02-.09,.07-.09,.14,0,.02,0,.05,.02,.07l.12,.12s.05,.12,.05,.19c0,.16-.05,.35-.05,.4,0,.33-.19,.42-.19,.77,0,.42-.26,1.05-.26,1.31,0,.05,0,.07,.02,.09,.33-.23,.98-1.14,1.24-1.52Z"/><path class="c" d="M134.91,22.43l-.12-.05c-.19,.21-.42,.37-.65,.54-.12,.09-.12,.19-.19,.23-.12,.12-.28,.16-.42,.28-.09,.09-.16,.23-.28,.33-.21,.19-.4,.4-.61,.56-.54,.35-.96,.75-1.49,1.05-.16,.09-.37,.23-.58,.33-.12,.05-.26,.07-.4,.07-.07,0-.14,0-.19-.02-.21-.09-.54-.26-.63-.47-.12-.23-.16-.54-.16-.86,0-.58,.16-1.21,.3-1.56v-.21s.12-.09,.16-.16c.12-.19,.14-.42,.28-.58,.05-.02,.12-.02,.14-.05v-.16c.02-.09,.12-.26,.19-.37,.05-.09,.37-.44,.47-.51,.07-.05,.12,0,.16-.07,.05-.07,.07-.21,.07-.3,.02-.26,.51-.33,.68-.51,.05-.07,.02-.14,.07-.21,.14-.16,.47-.3,.63-.47,.28-.23,.61-.33,.91-.54,.21-.14,.49-.07,.75-.19,.12-.07,.21-.05,.37-.09,.14-.05,.3-.16,.54-.19,.12,0,.23-.02,.33-.02,.35,0,.7,.07,1.05,.12,.98,.14,1.73,.91,1.73,1.73,0,.09,0,.16-.02,.26-.02,.12-.12,.28-.44,.28-.19,0-.3-.16-.3-.26,0-.37,.21-.49,.21-.63,0-.16-.19-.42-.33-.51-.28-.19-.68-.28-1.1-.28-.51,0-1.05,.14-1.42,.33-.12,.05-.19,.02-.33,.07-.14,.05-.35,.21-.47,.33l-.16,.19c-.12,.12-.28,.07-.42,.19-.12,.09-.07,.28-.26,.28s-.23,.26-.35,.42c-.05,.09-.26,.23-.33,.23-.12,.09-.14,.3-.23,.44-.07,.14-.26,.26-.35,.4-.21,.3-.4,.65-.58,.93-.26,.42-.4,.86-.51,1.38-.02,.07-.02,.16-.02,.26,0,.21,.05,.4,.3,.42,.16,0,.4-.05,.49-.12,.21-.16,.44-.21,.65-.37,.14-.09,.21-.23,.33-.35,.21-.21,.37-.28,.58-.47,.4-.33,.72-.7,1.14-1l.56-.68,.16-.37c.14-.28,.33-.47,.56-.61,.14-.07,.51-.28,.63-.33,.05-.02,.07-.02,.12-.02,.3,0,.56,.37,.65,.63,.02,.07,.05,.16,.05,.23,0,.19-.07,.37-.07,.56,0,.23-.23,.63-.33,.82-.12,.28-.14,.68-.3,1-.02,.07-.09,.09-.16,.28-.02,.05-.02,.09-.02,.14v.14c-.05,.19-.07,.37-.07,.51,0,.07,0,.12,.02,.16,.02,.14,.16,.21,.33,.21,.07,0,.16,0,.23-.05,.16-.07,.42-.33,1.14-.79,.26-.16,.37-.3,.58-.51,.05-.07,.23-.09,.28-.16,.16-.14,.3-.28,.42-.47,.07-.09,.3-.21,.4-.3,.28-.19,.75-.96,.98-.96,.16,0,.28,.07,.28,.23,0,.02,0,.05-.02,.09-.07,.14-.44,.61-.58,.68l-.16,.05-.42,.49c-.44,.54-.93,.86-1.24,1.12-.07,.05-.21,.05-.28,.12-.07,.05-.02,.16-.12,.21l-.42,.3c-.19,.14-.61,.28-.79,.37-.3,.14-.63,.26-.96,.26-.05,0-.07-.02-.12-.02-.37-.07-.75-.28-.91-.54-.07-.09-.12-.33-.12-.61,0-.19,.02-.4,.07-.63,.14-.56,.26-1.03,.44-1.59Z"/><path class="c" d="M140.82,21.15c.07-.07,.19-.14,.26-.23,.54-.79,.33-.21,1.38-1.75,.12-.16,.16-.02,.28-.19l.09-.14c.35-.47,.72-.96,1.28-.96,.12,0,.23,.02,.35,.07,.23,.07,.3,.09,.37,.4,.02,.09,.05,.21,.05,.3,0,.19-.05,.35-.09,.49-.05,.16-.05,.33-.09,.49-.12,.42-.26,.89-.4,1.24-.12,.23-.05,.56-.09,.86-.07,.51-.23,1.03-.3,1.49,0,.07-.02,.14-.02,.21-.05,.37-.09,.7-.09,.93,0,.19,.02,.33,.12,.42,.05,.05,.14,.07,.23,.07,.16,0,.37-.05,.49-.12,.19-.12,.23-.07,.4-.21,.05-.02,.07-.12,.09-.16,.26-.21,.47-.35,.68-.58,.05-.02,.14-.05,.19-.09,.33-.37,.51-.84,.84-1.24,.05-.05,.14-.02,.16-.05,.19-.19,.28-.51,.44-.75,.05-.16,.07-.16,.12-.35,.05-.3,.07-.4,.07-.54,0-.12-.02-.26-.09-.63-.07-.23-.28-.7-.3-.89v-.21c0-.26,.02-.51,.12-.75,.12-.26,.42-.54,.96-.54,.54,.02,.68,.44,.68,.63v.3c0,.33,0,.79-.09,1-.14,.35-.16,.58-.33,.96,.02,.14,.02,.28,.02,.4s0,.23,.02,.26c.09,.16,.12,.42,.19,.56,.21,.33,.12,.28,.49,.58,.07,.07,.35,.16,.54,.19,.07,0,.16,.02,.26,.02,.23,0,.51-.05,.77-.23,.07-.05,.14-.12,.26-.26,.07-.12,.16-.23,.28-.23,.02,0,.05,0,.07,.02,.07,.05,.09,.09,.09,.14,0,.12-.09,.23-.09,.23,0,0-.16,.21-.37,.37-.12,.12-.19,.09-.35,.19-.21,.12-.49,.14-.75,.14h-.21c-.28-.02-.77-.16-.96-.35-.07-.05-.07-.19-.12-.26-.07-.09-.16-.05-.23-.16-.12-.23-.23-.3-.35-.63-.28,.47-.42,.72-.75,1.14-.12,.16-.33,.33-.44,.49l-.12,.23s-.16,.07-.21,.12l-.51,.7c-.07,.09-.23,.14-.33,.21-.26,.3-.58,.47-.91,.7-.07,.05-.21,.26-.3,.26-.12,0-.16,.14-.28,.19-.28,.09-.7,.3-1.07,.3-.07,0-.14,0-.21-.02-.37-.12-.42-.4-.63-.51-.09-.07-.12-.42-.16-.51-.05-.09-.05-.21-.05-.3v-.26c0-.14,.05-.33,.05-.54v-.14s-.02-.16-.02-.26,.02-.09,.02-.12c.09-.3,.21-.72,.23-1.03l.02-.28c0-.14,.14-.28,.16-.49,.14-.3,.26-.89,.44-1.38,.12-.28,.05-.4,.14-.77-.02-.02-.05-.05-.07-.05s-.05,0-.07,.02c-.21,.19-.14,.19-.44,.47-.37,.28-.47,.7-.82,.98-.37,.28-.42,.44-.75,.77-.28,.28-.61,.86-1.05,.86-.09-.02-.12-.05-.12-.12,0-.05,0-.09,.05-.16,.21-.37,.65-.65,.91-1Z"/><path class="c" d="M151.09,24.44c-.09-.3-.12-.51-.12-.75s.02-.44,.12-.75c.07-.3,.05-.54,.16-.82,.14-.42,.35-.84,.63-1.26,.02-.05,.19-.14,.21-.19,.12-.16,.12-.26,.23-.44,.09-.19,.23-.28,.35-.42,.33-.4,.72-.75,1.07-1.03,.28-.19,1-.58,1.73-.58,.35,0,.68,.14,.89,.4,.21,.23,.3,.51,.3,.79,0,.37-.14,.7-.26,.86-.07,.07-.16,.12-.21,.19-.14,.16-.12,.4-.23,.56-.09,.14-.33,.26-.4,.4-.07,.05-.16,.19-.21,.26-.33,.35-.61,.47-.93,.61-.02,.02-.23,.02-.33,.07-.16,.05-.3,.21-.42,.28-.26,.19-.72,.09-.98,.3-.07,.07-.16,.54-.19,.65-.02,.07-.02,.19-.02,.3,0,.16,0,.3,.02,.44,.07,.35,.42,.75,.84,.82,.07,0,.14,.02,.21,.02,.47,0,1.1-.19,1.52-.44,.19-.12,.63-.4,.79-.68,.09-.14,.21-.23,.35-.23,.07,0,.16,.02,.21,.09s.07,.14,.07,.21c0,.12-.07,.21-.16,.3-.3,.3-.61,.51-.89,.68-.23,.14-.58,.37-.91,.42-.14,.02-.33,.16-.4,.16-.23,0-.28,.12-.49,.16-.16,.02-.35,.05-.51,.05-.86,0-1.73-.37-1.89-1.05-.05-.12-.14-.26-.16-.4Zm4.53-5.49c-.12,0-.3,.05-.44,.16-.16,.14-.28,.33-.47,.47-.16,.14-.35,.21-.54,.33-.07,.07-.07,.16-.12,.23-.09,.09-.23,.16-.33,.26-.21,.19-.21,.47-.35,.72-.16,.33-.35,.4-.35,.89,.09,.05,.21,.07,.33,.07,.33,0,.63-.16,.86-.26,.16-.07,.42-.19,.63-.35,.07-.05,.12-.16,.19-.23,.58-.56,.93-1.19,.93-1.91,0-.05-.02-.26-.21-.35-.02-.02-.07-.02-.14-.02Z"/><path class="c" d="M127.71,34.14c.23,0,.37,.35,.42,.42,.05,.07,.07,.16,.07,.26,0,.26-.14,.51-.23,.63-.19,.35-.28,.77-.51,1.1-.09,.19-.4,.61-.4,.86,0,.02-.05,.33-.09,.42-.05,.16-.28,.3-.28,.47v.28c0,.09,0,.21-.02,.3-.12,.47-.49,.86-.49,1.28,0,.23-.37,.61-.37,.89v.28c0,.09,0,.16-.02,.26-.02,.12-.28,.4-.28,.56,0,.26-.02,.51-.02,.79,0,.21-.3,.37-.35,.56-.09,.33-.05,.65-.12,.98-.09,.44-.33,.98-.42,1.4-.02,.09-.02,.16-.02,.26v.33c0,.16,0,.33-.09,.47-.05,.09-.19,.09-.28,.19-.09,.09-.12,.16-.12,.47,0,.07,0,.12-.02,.19-.05,.07-.14,.21-.16,.33-.02,.14-.02,.28-.02,.42v.4c0,.14-.28,.3-.28,.47v.4c0,.19-.16,.54-.3,1.07-.07,.3-.21,.42-.28,.75-.07,.26-.09,.65-.23,.86l-.16,.19c-.14,.21-.09,.49-.14,.77-.07,.35-.26,.7-.37,.98-.09,.21-.19,.47-.19,.65,0,.05,0,.09,.02,.12,.09,.19,.37,.09,.58,.19,.16,.09,.42,.3,.63,.4h.26c.07,0,.16,.21,.23,.26,.12,.07,.26,.07,.37,.12,.56,.3,.91,.72,1.17,1.47,.02,.09,.14,.44,.14,.56,0,.19-.02,.58-.05,.77-.02,.35-.19,.51-.33,.82-.23,.37-.63,.7-1.03,.89-.26,.12-.4,.12-.56,.14-.4,0-.63-.02-.82-.14-.16-.09-.3-.21-.3-.42,0-.07,.02-.16,.07-.28s.14-.19,.26-.19c.09,0,.19,.05,.28,.12,.12,.07,.09,.26,.21,.33,.09,.07,.21,.09,.33,.09,.07,0,.12,0,.19-.02,.37-.14,.51-.4,.68-.84,.07-.14,.09-.42,.09-.68s-.02-.51-.05-.63c-.12-.42-.21-.61-.37-.89,0-.02-.02-.05-.05-.07-.33-.58-1.33-1.19-2.19-1.31-.23,.54-.35,1.1-.56,1.45-.05,.07-.23,.19-.26,.26-.02,.14-.02,.3-.02,.44,0,.12-.16,.37-.23,.51-.05,.14-.33,.23-.33,.33,0,.19,0,.35-.02,.51-.05,.16-.44,.37-.44,.51v.33c0,.09-.21,.21-.28,.33-.09,.3-.02,.51-.14,.77-.19,.4-.42,.75-.54,1.03-.07,.16-.14,.37-.23,.51-.09,.14-.35,.65-.49,.72-.23,.14-.07,.49-.23,.7-.14,.16-.23,.3-.33,.47-.14,.28-.44,.42-.61,.82-.02,.07-.19,.3-.23,.37-.09,.14-.28,.09-.35,.19-.05,.07-.05,.16-.07,.26-.09,.07-.54,.63-.75,.72-.33,.14-.49,.61-.82,.82-.07,.05-.19,.02-.26,.07-.12,.07-.16,.23-.28,.33-.05,.02-.09,.05-.14,.05s-.09-.02-.16-.02c-.05,0-.09,.02-.14,.05-.05,.05-.07,.12-.12,.19-.09,.14-.35,.21-.49,.26h-.19c-.16,.09-.33,.3-.49,.4-.51,.26-1.03,.47-1.63,.47-.19,0-.51,.16-.7,.16-.47,0-.89,.02-1.35,.02-.56,0-1.14-.05-1.75-.23l-.75-.21c-.09-.02-.28-.21-.37-.26-.19-.07-.19-.05-.4-.14-.35-.14-1.03-.82-1.24-1.1-.42-.61-.68-1.12-.93-2.31-.05-.23-.05-.51-.05-.72,0-.07-.02-.21-.02-.28-.02-.19-.02-.28-.02-.49,0-1.21,.61-2.61,.98-3.29,1.24-2.12,2.92-3.48,4.97-4.51,1.38-.68,3.25-1.38,4.65-1.63,.07-.02,.14-.02,.21-.02,.14,0,.26,.02,.37,.02,.19,0,.44-.14,.63-.16,.54-.05,1.03-.07,1.54-.07s1.05,.02,1.75,.05c.35,.02,1.28,.19,1.66,.19,.07,0,.12,0,.14-.02,.12-.07,.23-.21,.23-.33s.16-.28,.16-.4c0-.23,.26-.54,.26-.82,0-.12,.02-.4,.05-.49,.12-.47,.58-1.49,.77-2.29l.19-.75c.42-1.54,.91-3.13,1.31-4.67,.09-.4,.09-.82,.19-1.21,.02-.12,.23-.28,.26-.4,.07-.14,.09-.3,.09-.65,0-.09,0-.21,.05-.3,.02-.12,.19-.35,.21-.47,.09-.47,.23-.93,.35-1.4,.26-.98,.7-2.22,.84-2.85,0-.02-.07-.05-.19-.05-.3,.09-.49,.23-.75,.37l-.37,.33c-.28,.26-.77,.26-.98,.58-.14,.21-.82,.56-.93,.63-.12,.07-.21,.28-.33,.33-.14,.05-.3,0-.4,.07-.09,.07-.09,.26-.21,.33-.09,.07-.3,.02-.37,.12-.16,.21-.65,.42-.86,.58l-.89,.7c-.12,.09-.35,.16-.49,.23-.23,.12-.19,.49-.44,.54-.12,.02-.54,.37-.72,.54-.05,.05-.14,.02-.19,.05-.09,.12-.12,.37-.23,.47-.14,.12-.35,.14-.51,.26-.14,.09-.09,.33-.21,.44-.07,.09-.19,.09-.28,.19-.12,.12-.21,.33-.26,.47-.02,.05-.19,.16-.21,.23-.33,.63-.35,1.1-.37,1.26-.12,.26-.26,.28-.28,.63-.02,.21-.02,.3-.02,.44,0,.12,0,.23,.05,.44,0,.21-.05,.33-.05,.54s.09,.37,.12,.56c.02,.44,.96,1.4,1.35,1.54,.37,.16,.75,.26,1.12,.26,.23,0,.47-.05,.7-.12,.3-.07,.47-.14,.7-.26,.14-.07,.26-.33,.4-.4,.02-.02,.07-.02,.12-.02,.02,0,.05,0,.07-.02,.49-.56,.65-1.19,.65-1.75,0-.23-.02-.44-.07-.65-.09-.37-.19-.28-.23-.44-.07,.02-.14,.02-.21,.02-.44,0-.7-.26-.7-.63,0-.33,.21-.4,.42-.44h.12c.4,0,.91,.28,1.07,.68,.12,.23,.26,.35,.3,.51,.05,.26,.07,.49,.07,.72,0,.26-.02,.49-.07,.75-.16,.91-.93,1.91-1.7,2.26h-.26c-.19,0-.47,.23-.65,.26-.33,.05-.63,.05-.89,.05s-.51,0-.72-.05c-1.38-.21-2.52-.72-2.87-1.94-.05-.14-.05-.3-.07-.44-.02-.19-.21-.47-.21-.65,0-.28,.02-.56,.02-.84,0-1.38,.75-2.59,1.52-3.57,.19-.26,.65-.42,.86-.68,.3-.37,1.56-1.14,1.63-1.26,.09-.09,.26-.19,.35-.28,.16-.14,.35-.16,.49-.26,.09-.05,.47-.37,.51-.42,.21-.14,.44-.28,.7-.42,.23-.14,.47-.33,.61-.4,.14-.05,.26-.05,.4-.12,.07-.05,.21-.21,.28-.26,.16-.07,.42-.26,.56-.33s.51-.23,.58-.33c.09-.16,.4-.14,.56-.26,.19-.12,.35-.37,.54-.51,.54-.37,1-.61,1.49-1.03,.19-.14,.37-.3,.51-.44,.56-.49,1.03-.89,1.59-1.33,.37-.23,.7-.65,.93-1,.09-.09,.21-.21,.33-.26,.02-.02,.07-.02,.09-.02Zm-8.89,21.01c-.23,0-.58-.07-.82-.07-.33-.02-.63-.02-.91-.02-.56,0-1.05,.02-1.54,.02-.19,0-.37,.05-.56,.05-.72,0-1.26,.23-1.89,.4-.26,.07-.77,.23-1.05,.28l-.07,.12c-.16,.12-.35,.09-.51,.21-.07,.05-.21,.23-.28,.26-.26,.09-.56,.12-.84,.19-.26,.02-.93,.54-1.03,.61-.12,.07-.35,.3-.44,.35l-.26,.09c-.19,.09-.47,.23-.65,.37-.14,.09-.07,.3-.19,.44-.14,.14-.33,.09-.42,.23-.12,.23-.63,.7-.72,.84,0,.02-.02,.07-.02,.12-.09,.12-.56,.37-.58,.44-.05,.07-.05,.12-.05,.16v.09c-.14,.33-.49,.58-.7,1.07-.02,.02-.02,.07-.02,.09,0,.05,.02,.09,.02,.16-.02,.05-.21,.16-.21,.26,0,.14-.05,.28-.05,.42,0,.28-.4,.68-.4,.93s-.09,.54-.12,.79c-.05,.44-.14,.77-.14,1.14,0,.09,0,.21,.02,.33,0,.05,.12,.26,.12,.3,0,.42,.26,.75,.26,1.1v.12c0,.16,.16,.23,.21,.35l.23,.47c.12,.21,.35,.28,.49,.44,.05,.07,.26,.12,.3,.19,.12,.14,.28,.12,.44,.21,.16,.09,.49,.3,.63,.3,.23,0,.63,.05,.86,.09,.33,.07,.58,.09,.86,.09,.42,0,.84-.07,1.35-.16,.14-.02,.37-.14,.51-.14,.42,0,1.03-.3,1.38-.51,.82-.44,1.42-.79,1.96-1.35,.84-.84,1.47-1.96,2.15-2.96,.21-.33,.3-.72,.49-1.1,.23-.14,.61-1.17,.75-1.42,.09-.09,.23-.21,.28-.33,.35-.7,.49-1.45,.82-2.17,.07-.19,.35-.35,.35-.54,0-.14,.02-.28,.07-.44,.14-.37,.56-.82,.56-1.21v-.26c.16-.4,.28-.56,.33-1.17-.05-.09-.7-.28-.98-.28Z"/><path class="c" d="M132.29,51.04c-.07,.05-.21,.07-.26,.12-.09,.09-.12,.23-.21,.3-.14,.09-.28,.12-.42,.23-.19,.12-.63,.72-.84,.86-.14,.09-.3,.09-.42,.19-.16,.09-.63,.56-.79,.56-.47,.02-.91,.44-1.45,.44-.05,0-.12-.02-.16-.02-.16,0-.35,.14-.56,.14-.05,0-.07-.02-.12-.02s-.63-.07-.68-.07c-.61-.16-.86-.37-1.03-.91-.05-.12-.14-.26-.16-.4-.09-.3-.12-.51-.12-.75s.02-.44,.12-.75c.07-.3,.05-.54,.16-.82,.14-.42,.35-.84,.63-1.26,.02-.05,.19-.14,.21-.19,.12-.16,.12-.26,.23-.44,.09-.19,.23-.28,.35-.42,.33-.4,.72-.75,1.07-1.03,.28-.19,1-.58,1.73-.58,.35,0,.68,.14,.89,.4,.21,.23,.3,.51,.3,.79,0,.37-.14,.7-.26,.86-.07,.07-.16,.12-.21,.19-.14,.16-.12,.4-.23,.56-.09,.14-.33,.26-.4,.4-.07,.05-.16,.19-.21,.26-.33,.35-.61,.47-.93,.61-.02,.02-.23,.02-.33,.07-.16,.05-.3,.21-.42,.28-.26,.19-.72,.09-.98,.3-.07,.07-.16,.54-.19,.65-.02,.07-.02,.19-.02,.3,0,.16,0,.3,.02,.44,.12,.63,.54,.89,1.12,.89,.14,0,.28-.02,.44-.05,.89-.16,1.17-.42,2.19-1.12,.35-.26,.84-.68,1.17-.96,.19-.14,.35-.42,.58-.51s.51-.93,.96-.96c.05,0,.14,.05,.14,.09,0,.07,0,.23-.05,.3-.05,.14-.35,.28-.47,.4-.14,.14-.35,.54-.42,.61Zm-2.57-4.06c-.12,0-.3,.05-.44,.16-.16,.14-.28,.33-.47,.47-.16,.14-.35,.21-.54,.33-.07,.07-.07,.16-.12,.23-.09,.09-.23,.16-.33,.26-.21,.19-.21,.47-.35,.72-.16,.33-.35,.4-.35,.89,.09,.05,.21,.07,.33,.07,.33,0,.63-.16,.86-.26,.16-.07,.42-.19,.63-.35,.07-.05,.12-.16,.19-.23,.58-.56,.93-1.19,.93-1.91,0-.05-.02-.26-.21-.35-.02-.02-.07-.02-.14-.02Z"/><path class="c" d="M145.32,46.81c0,.19-.02,.49-.12,.77-.14,.4-.21,1-.4,1.4-.05,.12-.05,.23-.09,.33-.26,.47-.42,.93-.72,1.35-.12,.16-.3,.33-.42,.49-.05,.07-.05,.16-.09,.23-.05,.05-.16,.07-.21,.12l-.47,.7c-.07,.09-.23,.14-.3,.21-.26,.3-.56,.47-.89,.7-.07,.05-.16,.16-.26,.16-.12,0-.16,.14-.28,.19-.16,.07-.44,.12-.72,.12-.21,0-.44-.02-.61-.12-.14-.07-.28-.21-.4-.3-.07,0-.14-.02-.19-.05-.09-.07-.16-.21-.21-.3-.09-.16-.07-.35-.09-.49,0-.19,.02-.33,.02-.49,0-.07,0-.16-.02-.26,0-.05-.02-.16-.02-.26,.07-.37,.19-.82,.19-1.14v-.28c0-.14,.12-.28,.14-.49-.7,.65-1.31,1.33-1.98,1.91-.16,.14-.3,.3-.47,.47-.05,.02-.12,0-.16,.05-.12,.09-.16,.21-.26,.3-.23,.16-.49,.21-.65,.42,0,.19-.07,.21-.19,.35-.09,.12-.3,.12-.4,.23-.07,.12-.07,.26-.16,.35-.09,.09-.26,.33-.35,.4-.05,.02-.12,.02-.14,.07-.05,.09-.05,.12-.05,.14s0,.07-.02,.16c-.05,.09-.19,.21-.28,.26-.05,.02-.14,.05-.21,.05-.14,0-.28-.05-.35-.07-.21-.07-.37-.16-.37-.37,0-.05,.02-.12,.05-.19,.07-.21,.07-.28,.14-.47,.12-.28,.28-.58,.4-.89,.09-.28,.14-.56,.23-.84,.19-.63,.28-.61,.4-.86,.19-.42,.21-.86,.4-1.28,.28-.56,.56-1.31,.72-1.94,0-.02-.05-.05-.07-.05-.09,0-.89,.98-.98,1.1-.49,.58-.77,.98-1.03,1.14-.3,.19-.37,.49-.61,.49-.14,0-.23-.07-.23-.19,0-.05,.02-.09,.05-.14l.37-.42c.12-.21,.21-.14,.4-.3,.19-.16,.12-.33,.33-.54,.19-.19,.26-.16,.49-.42,.26-.28,.49-.68,.79-1.03,.37-.42,.19-.56,.68-.93,.12-.09,.23-.07,.37-.14,.26-.12,.49-.49,.72-.49,.05,0,.12,.02,.16,.07,.21,.16,.28,.37,.28,.63,0,.44-.21,.98-.21,1.42v.12c0,.42-.19,1-.37,1.35-.05,.12-.19,.19-.23,.3-.3,.65-.49,1.4-.65,2.15,.05,.02,.07,.05,.09,.09,.47-.23,.82-.63,1.17-.98,.28-.26,.65-.47,.89-.77,.16-.21,.28-.42,.44-.63,.12-.12,.3-.21,.4-.35,.09-.12,.14-.26,.23-.35,.14-.16,.35-.3,.49-.47,.3-.35,.54-1.33,1.03-1.33,.21,.02,.3,.07,.4,.23,.07,.12,.09,.49,.09,.79,0,.16,0,.28-.02,.37-.02,.05-.07,.14-.07,.26,0,.05,0,.09,.02,.14,0,.02,.02,.07,.02,.09,0,.26-.21,.49-.21,.68v.35c0,.58-.23,1.33-.23,1.94,0,.35,.07,.63,.33,.82,.07,.05,.14,.07,.21,.07,.14,0,.28-.05,.4-.12,.19-.12,.23-.07,.4-.21,.02-.02,.05-.12,.07-.16,.26-.21,.44-.35,.65-.58,.05-.02,.12-.05,.16-.09,.3-.37,.47-.84,.77-1.24,.05-.05,.14-.02,.16-.05,.19-.19,.23-.47,.37-.7,.35-.56,.58-1.61,.63-1.89v-.21c0-.07,0-.14,.02-.21,.09-.49,.16-1.03,.16-1.52,0-.33-.02-.63-.12-.91-.07-.26-.02-.47-.12-.68l-.05-.07c-.12-.23-.26-.49-.49-.58-.47-.16-1.12-.07-1.12-.63,0-.02,.05-.16,.09-.21,.07-.07,.23-.16,.35-.16,.51,0,.75,.21,.96,.35,0,.21,.21,.19,.28,.33,.16,.21,.21,.47,.35,.68,.05,.07,.14,.14,.16,.21,.07,.19,.07,.49,.12,.68,.09,.33,.09,.63,.12,.93v1.12Z"/><path class="c" d="M152.7,51.04c-.07,.05-.21,.07-.26,.12-.09,.09-.12,.23-.21,.3-.14,.09-.28,.12-.42,.23-.19,.12-.63,.72-.84,.86-.14,.09-.3,.09-.42,.19-.16,.09-.63,.56-.79,.56-.47,.02-.91,.44-1.45,.44-.05,0-.12-.02-.16-.02-.16,0-.35,.14-.56,.14-.05,0-.07-.02-.12-.02s-.63-.07-.68-.07c-.61-.16-.86-.37-1.03-.91-.05-.12-.14-.26-.16-.4-.09-.3-.12-.51-.12-.75s.02-.44,.12-.75c.07-.3,.05-.54,.16-.82,.14-.42,.35-.84,.63-1.26,.02-.05,.19-.14,.21-.19,.12-.16,.12-.26,.23-.44,.09-.19,.23-.28,.35-.42,.33-.4,.72-.75,1.07-1.03,.28-.19,1-.58,1.73-.58,.35,0,.68,.14,.89,.4,.21,.23,.3,.51,.3,.79,0,.37-.14,.7-.26,.86-.07,.07-.16,.12-.21,.19-.14,.16-.12,.4-.23,.56-.09,.14-.33,.26-.4,.4-.07,.05-.16,.19-.21,.26-.33,.35-.61,.47-.93,.61-.02,.02-.23,.02-.33,.07-.16,.05-.3,.21-.42,.28-.26,.19-.72,.09-.98,.3-.07,.07-.16,.54-.19,.65-.02,.07-.02,.19-.02,.3,0,.16,0,.3,.02,.44,.12,.63,.54,.89,1.12,.89,.14,0,.28-.02,.44-.05,.89-.16,1.17-.42,2.19-1.12,.35-.26,.84-.68,1.17-.96,.19-.14,.35-.42,.58-.51s.51-.93,.96-.96c.05,0,.14,.05,.14,.09,0,.07,0,.23-.05,.3-.05,.14-.35,.28-.47,.4-.14,.14-.35,.54-.42,.61Zm-2.57-4.06c-.12,0-.3,.05-.44,.16-.16,.14-.28,.33-.47,.47-.16,.14-.35,.21-.54,.33-.07,.07-.07,.16-.12,.23-.09,.09-.23,.16-.33,.26-.21,.19-.21,.47-.35,.72-.16,.33-.35,.4-.35,.89,.09,.05,.21,.07,.33,.07,.33,0,.63-.16,.86-.26,.16-.07,.42-.19,.63-.35,.07-.05,.12-.16,.19-.23,.58-.56,.93-1.19,.93-1.91,0-.05-.02-.26-.21-.35-.02-.02-.07-.02-.14-.02Z"/><path class="c" d="M156.32,48.38c0,.37-.14,.65-.19,.93-.02,.14-.02,.28-.02,.42s0,.28-.02,.4c-.05,.26-.07,.72-.09,1.07-.02,.16-.07,.16-.07,.33,0,.12,.09,.14,.09,.26,0,.07-.02,.26-.02,.33,0,.09-.09,.23-.09,.33,0,.05,.12,.23,.12,.28,.05,.68,.14,1.07,.28,1.45,.14,.4,.49,.68,.65,.75,.21,.12,.58,.14,.79,.16,.09,0,.16,.02,.16,.14,0,.05-.02,.07-.09,.12-.09,.05-.12,.05-.19,.05h-.16c-.63,0-1.26-.3-1.59-.65-.12-.14-.23-.23-.33-.33-.05-.07-.02-.14-.07-.21-.07-.07-.19-.05-.23-.16-.14-.28-.19-.54-.28-.86,0-.02-.02-.05-.02-.07,.02-.02,.02-.07,.02-.09,0-.09-.09-.16-.14-.26-.07-.82-.12-1.35-.12-1.91,0-.72,.07-1.49,.14-2.17-.23,0-.33,.37-.44,.49-.26,.35-.47,.56-.72,.84-.07,.07-.16,.09-.26,.16-.09,.05-.19,.19-.28,.19-.02,0-.05,0-.07-.02-.07-.05-.12-.09-.12-.16,0-.05,.02-.12,.07-.19,.05-.05,.12-.05,.16-.09,.05-.07,.07-.14,.14-.21l.26-.21c.21-.21,.28-.37,.44-.61,.33-.44,.61-.7,.86-1.19,.14-.37,.26-1.35,.42-1.75,.28-.86,.51-1.91,.86-2.73,.12-.26,.4-.42,.49-.68v-.42c.23-.42,.19-.68,.44-1.12,.12-.19,.37-.42,.42-.65,.26-.65,.63-1.26,1-1.77,.33-.44,.4-.35,.49-.49,.07-.09,.02-.33,.16-.44,0-.02,.28-.33,.33-.37,.19-.16,.51-.42,.72-.42,.21-.07,.49-.14,.72-.14,.12,0,.21,.02,.3,.05,.54,.16,.75,.77,.75,1.45,0,.37-.07,.75-.16,1.1-.09,.33-.19,.79-.37,1.05-.16,.14-.19,.54-.4,1-.35,.86-1,1.89-1.49,2.61-.21,.33-.58,.82-.82,1.14-.16,.23-.47,.28-.58,.51-.02,.02-.02,.21-.12,.3l-.4,.42c-.21,.19-.35,.44-.51,.61-.4,.4-.51,.54-.58,.68-.19,.4-.26,.4-.26,.79Zm3.76-10.13c-.09,.09-.14,.35-.19,.47s-.28,.19-.35,.3c0,.02,.05,.12,.05,.21,0,.02-.02,.05-.02,.07-.4,.65-.79,1.45-.82,1.63,0,.07-.16,.44-.19,.51-.02,.07-.14,.05-.16,.26,0,.05-.19,.14-.21,.19,0,.05,.02,.16,.02,.26-.07,.37-.23,.58-.37,.89l-.33,.86c-.07,.19-.26,.37-.33,.58-.02,.07-.02,.3-.05,.37l-.07,.19c-.21,.56-.33,.86-.37,1.49,.16-.05,.23-.23,.75-.63,.09-.09,.21-.28,.3-.4,.44-.49,.63-.72,1-1.31,.09-.14,.4-.21,.49-.35,.23-.35,.09-.35,.33-.7,.09-.14,.51-.79,.58-.93,.21-.47,.58-1.21,.77-1.7,.3-.79,.44-1.52,.44-1.98,0-.16-.02-.28-.05-.37-.07-.33-.3-.44-.54-.44-.4,.07-.47,.28-.7,.54Z"/><path class="c" d="M161.55,45.51c0,.09-.02,.19-.05,.28-.09,.28-.42,.47-.51,.75-.02,.07-.05,.14-.05,.21,0,.19,.12,.33,.3,.44,.26,.16,1.12,.42,1.33,.58,.14,.12,.3,.42,.3,.7,0,.05-.02,.09-.02,.14-.12,.58-.42,1.14-.63,1.59-.19,.37-.16,.89-.26,1.24-.05,.16-.07,.33-.07,.51,0,.37,.12,.77,.33,.91,.12,.07,.23,.09,.35,.09,.3,0,.63-.19,.84-.33l.3-.19c.23-.19,.44-.3,.61-.51,.3-.35,.84-.93,1.19-1.21,.26-.19,.51-.86,.93-.86,.05,.02,.12,.02,.14,.07,.02,.02,.07,.09,.07,.14,0,.02-.02,.07-.05,.09-.16,.23-.49,.61-.65,.82-.07,.07-.16,.09-.23,.14-.09,.07-.14,.19-.19,.26-.16,.19-.37,.33-.56,.47-.19,.12-.26,.37-.42,.51-.51,.37-1.05,.75-1.63,1.05-.3,.14-.63,.23-.96,.23-.58,0-1.14-.26-1.4-.79-.07-.12-.07-.26-.07-.4,0-.19,.02-.4,.02-.61,0-.14,0-.28-.05-.4,0-.21,.07-.63,.12-.77,.12-.44,.16-.79,.3-1.21,.07-.26,.33-.56,.33-.84,0-.05,0-.12-.02-.16-.12-.26-.28-.51-.63-.56-.02-.02-.07-.05-.09-.05s-.05,.02-.07,.05c-.26,.26-.56,.47-.77,.75-.23,.33-.49,.63-.77,.91-.16,.12-.47,.3-.56,.44-.16,.23-.14,.3-.35,.37-.14,0-.26-.07-.26-.16,0-.05,.02-.09,.07-.14,.14-.14,.21-.23,.35-.42,.05-.07,.16-.14,.26-.23,.21-.21,.47-.49,.72-.79,.14-.14,.28-.26,.4-.4,.07-.09,.19-.37,.21-.4,.07-.12,.16-.12,.28-.21,.02-.02,.12-.28,.12-.42-.02-.09-.02-.19-.02-.3v-.33c0-.63,.16-1.17,.51-1.45,.09-.09,.21-.16,.33-.21,.05,0,.09-.02,.12-.02,.12,0,.21,.07,.33,.19,.12,.14,.19,.28,.19,.44Z"/><path class="c" d="M172.69,52.09c.07-.23,.44-1.33,.47-1.54,.05-.26,.12-.37,.14-.56-.21,.02-.28,.3-.54,.44-.35,.3-.4,.51-.75,.82-.12,.07-.35,.19-.44,.26-.05,.05-.16,.23-.21,.3l-.44,.4c-.23,.16-.7,.56-.96,.72-.58,.42-.42,.4-1.38,.84-.16,.09-.61,.21-.93,.21-.12,0-.37-.28-.42-.4-.09-.28-.12-.35-.12-.51-.02-.05-.02-.09-.02-.14,0-.09,.02-.14,.05-.28,.09-.54,.16-.75,.37-1.28l.07-.19c.14-.42,.26-.72,.4-.96,.07-.12,.14-.44,.23-.58,.23-.33,.23-.7,.37-1.14,0-.09-.21-.07-.21-.12-.28,.35-.49,.51-.91,.91-.19,.19-.3,.42-.49,.56-.14,.14-.35,.26-.42,.37-.16,.16-.3,.4-.56,.4-.07,0-.14-.05-.14-.14,0-.05,.02-.09,.05-.14,.12-.19,.19-.14,.35-.37,.07-.07,.33-.33,.37-.35,.12-.14,.33-.33,.49-.49l.07-.09c.21-.28,.33-.47,.58-.7,.05-.05,.42-.37,.72-.72,.33-.42,.07-.16,.44-.56,.05-.07,.14-.23,.23-.33,.14-.16,.21-.09,.35-.23,.05-.02,.05-.07,.07-.09,.16-.19,.35-.4,.51-.4,.28,0,.4,.44,.44,.47,.07,.21,.12,.42,.12,.63s-.05,.44-.14,.68c-.26,.44-.4,.89-.65,1.45-.02,.09-.23,.19-.23,.21,0,.07,.05,.14,.05,.21l-.35,.82c-.07,.14-.05,.28-.12,.4-.05,.12-.19,.23-.26,.47-.05,.23-.14,.63-.14,.91,0,.19,.02,.33,.14,.37,.07,.02,.16,.05,.26,.05,.12,0,.26-.02,.42-.16,.09-.09,.54-.35,.63-.44,.47-.51,.61-.51,1.05-.93,.23-.16,.82-.82,1.03-1.03,.7-.75,.91-.98,1.66-1.96,.47-.63,.79-2.01,1.26-2.31,.05-.02,.09-.05,.14-.05,.12,0,.23,.07,.28,.21,.14,.3,.23,.42,.23,.63,0,.05,0,.12-.02,.19,0,.09,.12,.21,.12,.44-.12,.56-.56,.82-.63,1.38-.07,.54-.26,1-.47,1.47-.21,.49-.21,.96-.42,1.49-.19,.4-.49,1.63-.65,2.05-.14,.58-.56,1.8-.79,2.22-.14,.26-.33,.28-.35,.35-.02,.02-.02,.07-.02,.12,0,.12,.07,.26,.07,.37,0,.02-.02,.05-.02,.07-.3,.68-.23,.56-.56,1.17-.23,.42-.35,.77-.56,1.1-.07,.12-.23,.28-.3,.42-.09,.14-.07,.26-.14,.42l-.28,.4c-.05,.14-.02,.3-.14,.42-.14,.19-.35,.42-.47,.61-.07,.12-.16,.42-.28,.49-.21,.12-.16,.33-.3,.49-.21,.23-.37,.47-.56,.7-.19,.26-.4,.51-.61,.77-.16,.21-.47,.37-.65,.58-.65,.77-.37,.42-1.19,1.03-.19,.12-.28,.28-.44,.4-.3,.19-.51,.12-.82,.28-.07,.02-.33,.21-.4,.23-.23,.12-.37,.12-.61,.19-.26,.09-.51,.12-.84,.12h-.44c-.35-.02-.82-.16-1.1-.35-.07-.02-.09-.12-.09-.21s.02-.19,.09-.26c.09-.09,.19-.12,.3-.12,.16,0,.3,.07,.33,.19,.12,.28,.44,.4,.82,.4,.19,0,.37-.02,.58-.07,1-.23,1.42-.56,2.38-1.61,.19-.19,.47-.3,.65-.54,.02-.02,.3-.49,.68-.98,.16-.19,.4-.4,.54-.58,.44-.54,.84-1.35,1.21-1.96,.4-.75,.61-1.38,1.03-2.12,.02-.05,.21-.23,.21-.26s-.02-.05-.02-.09c0-.02,0-.05,.02-.07,.05-.16,.19-.4,.26-.56,.09-.16,.09-.37,.12-.47,.37-.68,.51-1.19,.77-1.82,.16-.37,.21-.86,.33-1.21,.23-.58,.26-1.14,.47-1.77Z"/></g></svg>